<svg width="26" height="26" viewBox="0 0 26 26" fill="none" xmlns="http://www.w3.org/2000/svg">
<path fill-rule="evenodd" clip-rule="evenodd" d="M23.2177 3.33871C23.9542 3.33871 24.4794 2.7763 24.4794 2.16935C24.4794 1.56241 23.9542 1 23.2177 1C22.4812 1 21.956 1.56241 21.956 2.16935C21.956 2.7763 22.4812 3.33871 23.2177 3.33871ZM23.2177 4.33871C24.4668 4.33871 25.4794 3.36745 25.4794 2.16935C25.4794 0.971253 24.4668 0 23.2177 0C22.2922 0 21.4965 0.533233 21.1464 1.29688H3C1.34315 1.29688 0 2.64002 0 4.29688V22.5008C0 24.1577 1.34314 25.5008 3 25.5008H22.149C23.8059 25.5008 25.149 24.1577 25.149 22.5008V11.6566C25.149 9.99976 23.8059 8.65662 22.149 8.65662H10.7163C9.05949 8.65662 7.71634 9.99977 7.71634 11.6566V12.6504V14.7669C7.71634 16.4237 9.05949 17.7669 10.7163 17.7669H15.1183C15.504 18.4343 16.2459 18.8861 17.0979 18.8861C18.347 18.8861 19.3596 17.9149 19.3596 16.7168C19.3596 15.5187 18.347 14.5474 17.0979 14.5474C16.2039 14.5474 15.4312 15.0449 15.064 15.7669H10.7163C10.1641 15.7669 9.71634 15.3192 9.71634 14.7669V12.6504V11.6566C9.71634 11.1043 10.1641 10.6566 10.7163 10.6566H22.149C22.7013 10.6566 23.149 11.1043 23.149 11.6566V22.5008C23.149 23.0531 22.7013 23.5008 22.149 23.5008H3C2.44771 23.5008 2 23.0531 2 22.5008V4.29688C2 3.74459 2.44771 3.29688 3 3.29688H21.2851C21.6821 3.9216 22.3991 4.33871 23.2177 4.33871ZM18.3596 16.7168C18.3596 17.3237 17.8344 17.8861 17.0979 17.8861C16.3614 17.8861 15.8362 17.3237 15.8362 16.7168C15.8362 16.1098 16.3614 15.5474 17.0979 15.5474C17.8344 15.5474 18.3596 16.1098 18.3596 16.7168Z" fill="#005235"/>
</svg>
