<svg width="19" height="19" viewBox="0 0 19 19" fill="none" xmlns="http://www.w3.org/2000/svg">
<path fill-rule="evenodd" clip-rule="evenodd" d="M16.7183 2.12717C17.0715 2.12717 17.3183 1.85323 17.3183 1.56358C17.3183 1.27394 17.0715 1 16.7183 1C16.365 1 16.1182 1.27394 16.1182 1.56358C16.1182 1.85323 16.365 2.12717 16.7183 2.12717ZM16.7183 3.12717C17.602 3.12717 18.3183 2.42713 18.3183 1.56358C18.3183 0.70004 17.602 0 16.7183 0C16.1811 0 15.7057 0.25867 15.4156 0.655496H3C1.34315 0.655496 0 1.99864 0 3.6555V15.6592C0 17.3161 1.34315 18.6592 3 18.6592H15.3771C17.034 18.6592 18.3771 17.3161 18.3771 15.6592V8.96011C18.3771 7.30326 17.034 5.96011 15.3771 5.96011H8.45905C6.80219 5.96011 5.45904 7.30325 5.45904 8.96011V9.11792V10.0849C5.45904 11.7418 6.80219 13.0849 8.45905 13.0849H11.1651V13.0563C11.4586 13.3964 11.8979 13.6123 12.3887 13.6123C13.2724 13.6123 13.9888 12.9123 13.9888 12.0487C13.9888 11.1852 13.2724 10.4852 12.3887 10.4852C11.8771 10.4852 11.4216 10.7198 11.1287 11.0849H8.45905C7.90676 11.0849 7.45904 10.6372 7.45904 10.0849V9.11792V8.96011C7.45904 8.40782 7.90676 7.96011 8.45905 7.96011H15.3771C15.9294 7.96011 16.3771 8.40782 16.3771 8.96011V15.6592C16.3771 16.2115 15.9294 16.6592 15.3771 16.6592H3C2.44772 16.6592 2 16.2115 2 15.6592V3.6555C2 3.10321 2.44771 2.6555 3 2.6555H15.573C15.8636 2.94649 16.2693 3.12717 16.7183 3.12717ZM12.9888 12.0487C12.9888 12.3384 12.742 12.6123 12.3887 12.6123C12.0354 12.6123 11.7886 12.3384 11.7886 12.0487C11.7886 11.7591 12.0354 11.4852 12.3887 11.4852C12.742 11.4852 12.9888 11.7591 12.9888 12.0487Z" fill="#CECECE"/>
</svg>
