<svg width="26" height="26" viewBox="0 0 26 26" fill="none" xmlns="http://www.w3.org/2000/svg">
<path fill-rule="evenodd" clip-rule="evenodd" d="M23.7272 3.33871C24.4637 3.33871 24.9889 2.7763 24.9889 2.16935C24.9889 1.56241 24.4637 1 23.7272 1C22.9907 1 22.4655 1.56241 22.4655 2.16935C22.4655 2.7763 22.9907 3.33871 23.7272 3.33871ZM23.7272 4.33871C24.9763 4.33871 25.9889 3.36745 25.9889 2.16935C25.9889 0.971253 24.9763 0 23.7272 0C22.8017 0 22.006 0.533233 21.6559 1.29688H3.50952C1.85267 1.29688 0.509521 2.64002 0.509521 4.29688V22.5008C0.509521 24.1577 1.85266 25.5008 3.50952 25.5008H22.6585C24.3154 25.5008 25.6585 24.1577 25.6585 22.5008V11.6566C25.6585 9.99976 24.3154 8.65662 22.6585 8.65662H11.2259C9.56901 8.65662 8.22586 9.99977 8.22586 11.6566V12.6504V14.7669C8.22586 16.4237 9.56901 17.7669 11.2259 17.7669H15.6279C16.0135 18.4343 16.7555 18.8861 17.6074 18.8861C18.8565 18.8861 19.8691 17.9149 19.8691 16.7168C19.8691 15.5187 18.8565 14.5474 17.6074 14.5474C16.7135 14.5474 15.9407 15.0449 15.5735 15.7669H11.2259C10.6736 15.7669 10.2259 15.3192 10.2259 14.7669V12.6504V11.6566C10.2259 11.1043 10.6736 10.6566 11.2259 10.6566H22.6585C23.2108 10.6566 23.6585 11.1043 23.6585 11.6566V22.5008C23.6585 23.0531 23.2108 23.5008 22.6585 23.5008H3.50952C2.95724 23.5008 2.50952 23.0531 2.50952 22.5008V4.29688C2.50952 3.74459 2.95724 3.29688 3.50952 3.29688H21.7947C22.1917 3.9216 22.9087 4.33871 23.7272 4.33871ZM18.8691 16.7168C18.8691 17.3237 18.3439 17.8861 17.6074 17.8861C16.8709 17.8861 16.3457 17.3237 16.3457 16.7168C16.3457 16.1098 16.8709 15.5474 17.6074 15.5474C18.3439 15.5474 18.8691 16.1098 18.8691 16.7168Z" fill="#009E66"/>
</svg>
