<svg width="390" height="411" viewBox="0 0 390 411" fill="none" xmlns="http://www.w3.org/2000/svg">
<path d="M264.5 304.7C218.5 357 136.5 346.5 126.5 287C137.167 288.5 154 278.12 154 224C154 224 183 258.5 224.5 258.5C230 257.667 242.7 253.2 249.5 242C258 228 225 294.901 264.5 304.7Z" fill="white" stroke="#2F2A2A"/>
<path d="M12.3251 323.269C22.6665 300.896 30.5 290.5 71.7625 286.057C70.4306 310.789 58.7762 368.274 58.7762 368.274C58.7762 368.274 50.5031 386.098 53.5 391H1C1.8 378.2 8.88342 340.513 12.3251 323.269Z" fill="white"/>
<path d="M331.736 283.611C399 283.611 388.477 355.784 387.43 391H339C340.6 377 334.824 359.322 331.736 352.233C326.035 337.636 327.989 301.138 331.736 283.611Z" fill="white"/>
<path d="M105.227 283.611C96.647 283.191 84.5402 283.701 71.7625 286.057M314.507 283.611C320.738 282.775 326.469 282.818 331.736 283.611M71.7625 286.057C30.5 290.5 22.6665 300.896 12.3251 323.269C8.88342 340.513 1.8 378.2 1 391H53.5C50.5031 386.098 58.7762 368.274 58.7762 368.274C58.7762 368.274 70.4306 310.789 71.7625 286.057ZM331.736 283.611C399 283.611 388.477 355.784 387.43 391H339C340.6 377 334.824 359.322 331.736 352.233C326.035 337.636 327.989 301.138 331.736 283.611Z" stroke="#2F2A2A"/>
<path d="M81.518 123.932C89.518 75.1317 91.6309 76.4354 96.518 65.4354C116.955 19.4354 196.018 -6.56457 241.018 1.43543C277.018 7.83543 304.159 40.5821 309.018 51.9316C310.518 55.4354 325.018 106.935 317.018 199.935C309.018 292.935 354.126 235.435 335.018 280.932C314.018 330.932 267.018 315.5 251.018 298.5C236.518 280.432 243.818 252.877 247.018 244.932C233.578 263.408 215.518 268.939 174.018 240.935C165.876 235.442 159.549 229.888 154.639 224.435C161.871 254.565 146.869 279.653 138.248 288.696C138.095 288.857 138.006 289.046 137.98 289.266C135.572 310.056 124.993 352.569 101.518 358.932C72.018 366.928 85.518 424.935 75.518 406.935C67.518 392.535 69.1847 368.933 71.018 358.932C93.0181 292.435 91.4608 294.773 93.018 280.932C97.518 240.935 71.518 184.932 81.518 123.932Z" fill="#2F2A2A"/>
<path d="M247.178 244.064C233.739 262.541 215.678 268.072 174.178 240.068C166.037 234.574 159.709 229.021 154.799 223.568C140.383 207.56 138.184 192.426 138.153 182.245C138.151 181.39 137.114 180.898 136.369 181.318C115.342 193.164 101.01 108.341 112.678 118.064C124.678 128.064 126.678 151.564 131.178 150.568C135.678 149.572 134.678 118.064 152.178 88.0645C173.762 51.0645 216.678 40.0645 258.178 51.0645C283.178 57.691 284.178 88.0721 287.678 114.068C287.678 122.928 286.708 131.796 284.768 138.271C284.71 138.466 284.71 138.666 284.768 138.86C287.635 148.453 286.343 169.726 284.706 176.455C284.687 176.534 284.679 176.599 284.677 176.68C284.481 184.912 263.105 222.169 247.178 244.064Z" fill="white" stroke="black"/>
<path d="M227 231.689C218.539 231.689 201.683 221.676 194.709 214.107C194.168 213.521 194.558 212.615 195.354 212.566C199.66 212.296 210.534 211.765 218 212.692C221.748 213.158 227.243 214.315 228.658 214.619C228.882 214.667 229.109 214.637 229.315 214.539C236.712 211.043 249.113 212.019 253.448 212.5C254.174 212.58 254.53 213.382 254.097 213.972C250.964 218.234 240.045 231.689 227 231.689Z" fill="#2F2A2A"/>
</svg>
