<svg width="390" height="411" viewBox="0 0 390 411" fill="none" xmlns="http://www.w3.org/2000/svg">
<path d="M126.5 287C136.5 346.5 218.5 357 264.5 304.7" stroke="black"/>
<path d="M105.227 283.611C96.647 283.191 84.5402 283.701 71.7625 286.057M387.43 391C388.477 355.784 399 283.611 331.736 283.611M314.507 283.611C320.738 282.775 326.469 282.818 331.736 283.611M71.7625 286.057C30.5 290.5 22.6665 300.896 12.3251 323.269C8.88342 340.513 1.8 378.2 1 391M71.7625 286.057C70.4306 310.789 58.7762 368.274 58.7762 368.274C58.7762 368.274 50.5031 386.098 53.5 391M331.736 283.611C327.989 301.138 326.035 337.636 331.736 352.233C334.824 359.322 340.6 377 339 391" stroke="black"/>
<path fill-rule="evenodd" clip-rule="evenodd" d="M172.227 123.722C172.072 124.391 172.063 125.52 172.272 127.23C173.721 139.029 181.615 146.008 187.739 149.267C188.318 149.575 188.81 149.42 189.098 149.099C189.396 148.767 189.522 148.203 189.199 147.604C185.316 140.377 180.443 131.947 176.762 127.048C175.842 125.824 175.008 124.835 174.291 124.144C173.932 123.798 173.613 123.536 173.336 123.358C173.053 123.176 172.846 123.101 172.708 123.086C172.594 123.074 172.535 123.1 172.48 123.153C172.405 123.226 172.304 123.389 172.227 123.722ZM177.561 126.447C181.293 131.413 186.196 139.902 190.08 147.131C190.594 148.087 190.432 149.109 189.843 149.766C189.244 150.434 188.25 150.671 187.269 150.15C180.966 146.795 172.781 139.58 171.28 127.352C171.067 125.621 171.056 124.345 171.253 123.497C171.352 123.071 171.514 122.697 171.783 122.436C172.072 122.155 172.436 122.051 172.817 122.092C173.173 122.131 173.532 122.295 173.877 122.517C174.228 122.743 174.599 123.052 174.985 123.424C175.757 124.168 176.628 125.205 177.561 126.447ZM186.678 182.233C187.211 181.8 187.912 180.914 188.795 179.436C194.892 169.231 192.942 158.876 190.106 152.545C189.838 151.947 189.355 151.767 188.93 151.844C188.492 151.923 188.047 152.291 187.933 152.962C186.564 161.051 185.238 170.697 185.139 176.825C185.114 178.355 185.166 179.648 185.308 180.634C185.379 181.127 185.47 181.529 185.58 181.841C185.691 182.158 185.808 182.344 185.908 182.44C185.991 182.52 186.054 182.536 186.129 182.527C186.233 182.516 186.413 182.449 186.678 182.233ZM184.139 176.808C184.24 170.598 185.578 160.886 186.947 152.795C187.128 151.724 187.883 151.017 188.752 150.86C189.634 150.7 190.565 151.122 191.019 152.136C193.938 158.653 195.972 169.373 189.654 179.949C188.759 181.446 187.985 182.46 187.309 183.009C186.97 183.285 186.612 183.48 186.239 183.521C185.839 183.566 185.487 183.425 185.213 183.159C184.955 182.909 184.772 182.56 184.636 182.172C184.498 181.779 184.394 181.307 184.318 180.776C184.165 179.715 184.113 178.362 184.139 176.808ZM204.109 180.883C204.433 180.26 204.695 179.15 204.825 177.41C205.744 165.138 198.877 156.58 193.406 152.325C192.927 151.953 192.428 151.99 192.078 152.226C191.721 152.466 191.476 152.942 191.607 153.552C193.326 161.551 196.601 170.962 199.564 176.608C200.304 178.018 201.017 179.177 201.672 180.016C202.345 180.88 202.893 181.318 203.283 181.43C203.452 181.478 203.573 181.46 203.678 181.402C203.797 181.337 203.95 181.19 204.109 180.883ZM198.679 177.072C195.665 171.33 192.363 161.829 190.629 153.762C190.414 152.761 190.817 151.87 191.519 151.396C192.228 150.919 193.2 150.898 194.02 151.536C199.653 155.916 206.775 164.767 205.822 177.485C205.69 179.254 205.418 180.534 204.997 181.344C204.784 181.755 204.511 182.085 204.159 182.279C203.793 182.48 203.396 182.502 203.009 182.391C202.288 182.185 201.571 181.512 200.883 180.631C200.177 179.726 199.433 178.509 198.679 177.072ZM168.275 175.896C168.962 175.877 170.057 175.601 171.658 174.967C182.71 170.587 187.471 161.187 189.078 154.439C189.23 153.801 188.956 153.364 188.572 153.167C188.176 152.962 187.599 152.983 187.1 153.446C181.087 159.027 174.16 165.87 170.349 170.668C169.397 171.867 168.65 172.924 168.162 173.793C167.918 174.227 167.746 174.602 167.643 174.915C167.538 175.235 167.518 175.454 167.538 175.591C167.555 175.705 167.596 175.755 167.661 175.795C167.75 175.849 167.933 175.905 168.275 175.896ZM169.566 170.047C173.429 165.183 180.406 158.296 186.42 152.713C187.216 151.974 188.246 151.873 189.03 152.278C189.827 152.688 190.308 153.59 190.051 154.671C188.396 161.617 183.48 171.358 172.026 175.896C170.405 176.539 169.174 176.871 168.303 176.895C167.866 176.907 167.463 176.844 167.143 176.65C166.798 176.441 166.605 176.115 166.549 175.737C166.497 175.382 166.565 174.994 166.693 174.604C166.823 174.207 167.028 173.77 167.291 173.303C167.816 172.368 168.599 171.263 169.566 170.047ZM157.249 146.263C157.638 146.829 158.465 147.598 159.868 148.597C169.551 155.493 180.029 154.379 186.567 152.06C187.185 151.841 187.403 151.373 187.36 150.944C187.316 150.5 186.986 150.027 186.326 149.86C178.372 147.847 168.864 145.752 162.764 145.162C161.24 145.014 159.947 144.962 158.953 145.025C158.456 145.056 158.048 145.115 157.729 145.199C157.403 145.285 157.209 145.387 157.105 145.478C157.018 145.554 156.998 145.616 157 145.692C157.003 145.796 157.055 145.981 157.249 146.263ZM162.86 144.166C169.043 144.765 178.616 146.877 186.571 148.891C187.624 149.157 188.268 149.967 188.355 150.845C188.444 151.737 187.948 152.631 186.901 153.003C180.171 155.39 169.323 156.558 159.288 149.412C157.867 148.4 156.919 147.547 156.425 146.829C156.178 146.469 156.012 146.097 156.001 145.722C155.988 145.319 156.157 144.98 156.444 144.728C156.714 144.491 157.077 144.337 157.474 144.232C157.877 144.126 158.355 144.06 158.891 144.027C159.961 143.959 161.314 144.016 162.86 144.166ZM217.889 133.832C217.699 134.442 217.144 135.347 216.074 136.591C209.587 144.129 201.261 149.081 193.7 149.709C193.137 149.756 192.755 149.476 192.586 149.108C192.416 148.734 192.45 148.231 192.841 147.804C198.442 141.678 206.534 136.571 212.136 134.249C213.534 133.67 214.761 133.271 215.744 133.071C216.236 132.971 216.655 132.923 216.997 132.923C217.344 132.924 217.581 132.974 217.73 133.043C217.864 133.106 217.916 133.177 217.941 133.256C217.972 133.352 217.983 133.531 217.889 133.832ZM211.753 133.326C206.033 135.696 197.815 140.882 192.103 147.129C191.444 147.849 191.338 148.781 191.677 149.523C192.018 150.271 192.795 150.788 193.783 150.706C201.686 150.049 210.235 144.909 216.832 137.243C217.921 135.977 218.59 134.943 218.844 134.13C218.972 133.718 219.01 133.314 218.893 132.95C218.77 132.567 218.499 132.299 218.153 132.137C217.822 131.983 217.423 131.924 216.998 131.923C216.568 131.923 216.079 131.982 215.545 132.091C214.477 132.308 213.185 132.732 211.753 133.326ZM187.053 118.278C186.649 118.674 186.178 119.479 185.673 120.836C181.431 132.237 185.503 142.264 189.533 147.909C189.895 148.417 190.393 148.516 190.799 148.377C191.214 148.236 191.584 147.826 191.61 147.183C191.96 138.326 191.255 128.992 189.964 123.261C189.642 121.829 189.286 120.639 188.909 119.743C188.521 118.823 188.145 118.301 187.832 118.096C187.693 118.006 187.588 117.99 187.499 118.005C187.398 118.021 187.249 118.086 187.053 118.278ZM190.94 123.041C192.256 128.882 192.961 138.309 192.609 147.223C192.567 148.269 191.937 149.045 191.122 149.324C190.298 149.605 189.338 149.358 188.719 148.49C184.571 142.678 180.339 132.302 184.736 120.488C185.252 119.1 185.785 118.121 186.353 117.564C186.643 117.28 186.971 117.077 187.339 117.018C187.717 116.957 188.071 117.058 188.379 117.26C188.96 117.64 189.431 118.408 189.83 119.355C190.24 120.326 190.611 121.579 190.94 123.041ZM221.084 163.163C220.482 163.461 219.421 163.714 217.773 163.876C206.329 164.996 198.386 158.579 194.299 153.174C193.912 152.663 193.979 152.156 194.246 151.813C194.521 151.46 195.048 151.237 195.684 151.432C203.168 153.729 211.953 156.749 217.201 159.347C218.512 159.996 219.584 160.61 220.356 161.172C220.741 161.452 221.04 161.711 221.254 161.946C221.471 162.185 221.577 162.373 221.615 162.509C221.647 162.625 221.633 162.703 221.584 162.782C221.524 162.879 221.383 163.016 221.084 163.163ZM217.645 158.451C212.317 155.813 203.463 152.773 195.978 150.476C194.956 150.163 193.995 150.509 193.457 151.198C192.912 151.898 192.842 152.905 193.501 153.777C197.713 159.346 205.96 166.037 217.87 164.871C219.544 164.707 220.755 164.441 221.527 164.06C221.915 163.868 222.237 163.626 222.434 163.31C222.642 162.974 222.68 162.603 222.578 162.239C222.481 161.895 222.265 161.572 221.994 161.274C221.719 160.972 221.363 160.667 220.944 160.363C220.107 159.754 218.977 159.111 217.645 158.451ZM201.414 120.521C201.419 120.525 201.432 120.536 201.449 120.565C203.351 123.624 202.983 128.315 201.372 133.245C199.772 138.14 196.997 143.111 194.318 146.602C193.703 147.402 192.965 147.495 192.44 147.256C191.9 147.011 191.436 146.346 191.542 145.323C192.36 137.454 194.698 130.707 196.997 126.219C198.149 123.969 199.279 122.313 200.184 121.366C200.645 120.884 201.004 120.632 201.243 120.546C201.356 120.506 201.403 120.516 201.408 120.518C201.409 120.518 201.411 120.519 201.414 120.521ZM196.107 125.763C193.754 130.356 191.378 137.222 190.547 145.22C190.404 146.605 191.038 147.717 192.026 148.167C193.03 148.623 194.252 148.33 195.111 147.211C197.853 143.638 200.684 138.567 202.322 133.556C203.949 128.58 204.451 123.5 202.298 120.037C202.155 119.806 201.946 119.628 201.671 119.553C201.408 119.481 201.142 119.52 200.905 119.605C200.444 119.771 199.953 120.161 199.461 120.675C198.462 121.72 197.281 123.471 196.107 125.763ZM193.006 151.134C193.006 151.134 193.004 151.136 193.002 151.138C193.005 151.136 193.006 151.134 193.006 151.134ZM193.1 151.63C193.1 151.63 193.099 151.63 193.098 151.629C193.099 151.63 193.1 151.63 193.1 151.63ZM192.319 151.542C191.994 151.537 191.591 151.549 191.118 151.581C189.087 151.717 185.875 152.206 182.228 153.051C178.582 153.896 174.52 155.093 170.785 156.641C167.042 158.192 163.663 160.082 161.355 162.295C161.026 162.61 160.954 163.002 161.046 163.314C161.137 163.62 161.394 163.883 161.828 163.937C165.255 164.366 169.642 163.081 174.896 160.714C179.636 158.578 185.002 155.601 190.9 152.33C191.37 152.069 191.843 151.807 192.319 151.542ZM170.402 155.717C166.61 157.289 163.101 159.236 160.663 161.573C160.069 162.142 159.887 162.92 160.087 163.598C160.289 164.281 160.872 164.825 161.704 164.93C165.429 165.395 170.039 163.999 175.307 161.625C180.088 159.472 185.492 156.473 191.379 153.208C192 152.863 192.627 152.515 193.258 152.165C193.403 152.085 193.533 152.001 193.639 151.91C193.734 151.828 193.864 151.696 193.919 151.507C193.949 151.402 193.956 151.283 193.921 151.16C193.886 151.04 193.821 150.948 193.753 150.881C193.629 150.758 193.473 150.696 193.357 150.661C193.113 150.587 192.785 150.554 192.416 150.544C192.037 150.534 191.577 150.548 191.051 150.583C188.95 150.724 185.683 151.224 182.002 152.077C178.318 152.93 174.201 154.143 170.402 155.717ZM162.966 136.156C163.025 136.043 163.233 135.852 163.912 135.799C165.084 135.709 166.772 136.077 168.795 136.827C170.802 137.57 173.083 138.667 175.416 139.978C180.085 142.601 184.918 146.053 188.144 149.173C188.891 149.896 188.85 150.57 188.58 150.956C188.292 151.366 187.593 151.678 186.586 151.344C178.732 148.735 171.689 144.744 167.345 141.363C165.158 139.661 163.714 138.158 163.161 137.1C162.878 136.558 162.902 136.278 162.966 136.156ZM166.731 142.152C171.167 145.605 178.312 149.649 186.271 152.293C187.585 152.729 188.796 152.39 189.399 151.53C190.019 150.645 189.848 149.431 188.839 148.454C185.537 145.261 180.629 141.76 175.905 139.106C173.542 137.778 171.212 136.656 169.142 135.889C167.088 135.128 165.231 134.695 163.835 134.802C163.059 134.862 162.387 135.106 162.08 135.692C161.778 136.268 161.952 136.946 162.275 137.564C162.935 138.825 164.529 140.438 166.731 142.152ZM189.291 150.566C196.162 149.176 202.275 148.143 207.487 147.677C212.724 147.208 217.011 147.315 220.23 148.181C220.797 148.334 220.989 148.71 220.974 149.044C220.959 149.398 220.704 149.819 220.116 150.002C211.876 152.564 203.018 152.7 196.784 152.076C193.663 151.763 191.231 151.263 189.878 150.797C189.643 150.716 189.448 150.638 189.291 150.566ZM196.684 153.071C203.004 153.703 212.006 153.57 220.413 150.957C221.366 150.661 221.937 149.902 221.973 149.089C222.01 148.257 221.48 147.482 220.489 147.216C217.1 146.304 212.674 146.208 207.397 146.681C202.113 147.153 195.934 148.2 189.021 149.6C188.721 149.661 188.43 149.751 188.226 149.909C188.117 149.995 187.997 150.127 187.95 150.318C187.901 150.517 187.951 150.697 188.027 150.831C188.159 151.065 188.407 151.232 188.629 151.353C188.874 151.486 189.187 151.617 189.552 151.743C191.009 152.245 193.528 152.755 196.684 153.071Z" fill="black"/>
<path d="M245.678 244.064C232.239 262.541 214.178 268.072 172.678 240.068C164.537 234.574 158.209 229.021 153.299 223.568C138.883 207.56 136.684 192.426 136.653 182.245C136.651 181.39 135.614 180.898 134.869 181.318C113.842 193.164 99.5101 108.341 111.178 118.065C123.178 128.065 125.178 151.564 129.678 150.568C134.178 149.572 133.178 118.065 150.678 88.0645C172.262 51.0645 215.178 40.0645 256.678 51.0645C281.678 57.691 282.678 88.0721 286.178 114.068C286.178 122.928 285.208 131.796 283.268 138.271C283.21 138.466 283.21 138.666 283.268 138.86C286.135 148.453 284.843 169.726 283.206 176.455C283.187 176.534 283.179 176.599 283.177 176.68C282.981 184.913 261.605 222.169 245.678 244.064Z" stroke="black"/>
<path d="M283.5 139C275.5 133.5 254.278 133.5 246.5 143.5C238.722 153.5 238.333 166.341 240.5 173.012" stroke="#171717" stroke-linecap="round"/>
<path d="M225.5 231.689C217.039 231.689 200.183 221.676 193.209 214.107C192.668 213.521 193.058 212.615 193.854 212.566C198.16 212.296 209.034 211.765 216.5 212.693C220.248 213.158 225.743 214.315 227.158 214.619C227.382 214.667 227.609 214.637 227.815 214.539C235.212 211.044 247.613 212.019 251.948 212.5C252.674 212.58 253.03 213.382 252.597 213.972C249.464 218.234 238.545 231.689 225.5 231.689Z" fill="#2F2A2A"/>
<path fill-rule="evenodd" clip-rule="evenodd" d="M93.0001 69.7178C89.3755 77.1491 86.8326 82.3626 80.018 123.932C74.2946 158.845 80.3639 192.121 85.7581 221.696C89.7888 243.795 93.4425 263.827 91.518 280.932C91.3932 282.041 91.2883 283.047 91.1898 283.993C90.0591 294.84 89.754 297.768 69.518 358.932C67.6847 368.933 66.018 392.535 74.018 406.935C77.8829 413.892 78.2375 409.495 78.921 401.02C80.0059 387.567 81.9195 363.837 100.018 358.932C123.493 352.569 134.072 310.056 136.48 289.266C136.506 289.046 136.595 288.857 136.748 288.696C145.369 279.653 160.371 254.565 153.139 224.435C158.049 229.888 164.376 235.442 172.518 240.935C214.018 268.939 232.078 263.408 245.518 244.932C242.318 252.877 235.018 280.432 249.518 298.5C265.518 315.5 312.518 330.932 333.518 280.932C341.573 261.754 338.217 260.877 332.239 259.314C324.034 257.169 310.89 253.734 315.518 199.935C323.518 106.935 309.018 55.4354 307.518 51.9316C302.659 40.5821 275.518 7.83543 239.518 1.43543C194.518 -6.56457 115.455 19.4354 95.018 65.4354C94.2939 67.0653 93.6306 68.4251 93.0001 69.7178ZM172.613 240.521C214.072 268.591 232.114 263.047 245.54 244.527C261.451 222.581 282.806 185.236 283.002 176.985C283.004 176.903 283.012 176.838 283.031 176.759C284.666 170.014 285.957 148.689 283.092 139.074C283.034 138.88 283.035 138.681 283.093 138.487C285.031 131.996 286 123.107 286 114.226C282.503 88.1685 273.5 65.5503 252.63 60C211.171 48.9742 170.562 60.4132 149 97.5C138.145 116.17 135.045 131.823 133.179 141.247C132.04 147.001 131.36 150.433 129.656 150.811C127.716 151.242 126.241 147.101 124.228 141.448C121.575 134 117.989 123.929 111.174 118.231C99.5176 108.485 113.835 193.507 134.841 181.633C135.585 181.212 136.621 181.705 136.624 182.563C136.654 192.768 138.852 207.937 153.253 223.983C158.158 229.448 164.479 235.015 172.613 240.521Z" fill="#2F2A2A"/>
</svg>
