<svg width="390" height="407" viewBox="0 0 390 407" fill="none" xmlns="http://www.w3.org/2000/svg">
<path d="M264.5 306.7C218.5 359 136.5 348.5 126.5 289C137.167 290.5 149.5 259.62 149.5 205.5C149.5 205.5 183 260.5 224.5 260.5C230 259.667 242.7 255.2 249.5 244C258 230 225 296.901 264.5 306.7Z" fill="#FEF0E9" stroke="#2F2A2A"/>
<path d="M12.3251 325.269C22.6665 302.896 30.5 292.5 71.7625 288.057C70.4306 312.789 58.7762 370.275 58.7762 370.275C58.7762 370.275 50.5031 388.098 53.5 393H1C1.8 380.2 8.88342 342.513 12.3251 325.269Z" fill="#FEF0E9"/>
<path d="M331.736 285.611C399 285.611 388.477 357.784 387.43 393H339C340.6 379 334.824 361.322 331.736 354.233C326.035 339.636 327.989 303.138 331.736 285.611Z" fill="#FEF0E9"/>
<path d="M105.227 285.611C96.647 285.191 84.5402 285.701 71.7625 288.057M314.507 285.611C320.738 284.775 326.469 284.818 331.736 285.611M71.7625 288.057C30.5 292.5 22.6665 302.896 12.3251 325.269C8.88342 342.513 1.8 380.2 1 393H53.5C50.5031 388.098 58.7762 370.275 58.7762 370.275C58.7762 370.275 70.4306 312.789 71.7625 288.057ZM331.736 285.611C399 285.611 388.477 357.784 387.43 393H339C340.6 379 334.824 361.322 331.736 354.233C326.035 339.636 327.989 303.138 331.736 285.611Z" stroke="#2F2A2A"/>
<path d="M81.518 125.932C86.7527 94 94 74 96.518 67.4354C123.218 -2.17317 196.018 -4.56457 241.018 3.43543C277.018 9.83543 304.159 42.5821 309.018 53.9316C315.683 69.5 325.018 108.935 317.018 201.935C309.018 294.935 339.5 267.5 335.018 282.932C319.892 335.011 267.018 317.5 251.018 300.5C236.518 282.432 243.818 254.877 247.018 246.932C233.578 265.408 215.518 270.939 174.018 242.935C165.876 237.442 159.549 231.888 154.639 226.435C161.936 256.835 148.923 288.115 144.5 300.5C137 321.5 131.018 340.5 101.518 360.932C76.3915 378.334 73.4444 413 69 405C61 390.6 61.6666 365.501 63.4999 355.5C71.6572 311 85.1446 295.957 88 267C92 226.435 71.518 186.932 81.518 125.932Z" fill="#2F2A2A"/>
<path d="M247.178 246.064C233.739 264.541 215.678 270.072 174.178 242.068C166.037 236.574 159.709 231.021 154.799 225.568C140.383 209.56 138.184 194.426 138.153 184.245C138.151 183.39 137.114 182.898 136.369 183.318C115.342 195.164 101.01 110.341 112.678 120.065C124.678 130.065 126.678 153.564 131.178 152.568C135.678 151.572 134.678 120.064 152.178 90.0645C173.762 53.0645 212.775 46 254.275 57C279.275 63.6265 287.678 96.4282 287.678 116.068C287.678 125 284.705 137.432 284.677 141C284.705 143.432 289 166 284.706 178.455C284.687 178.534 284.679 178.599 284.677 178.68C284.481 186.913 263.105 224.169 247.178 246.064Z" fill="#FEF0E9" stroke="black"/>
<path d="M227 233.689C218.539 233.689 201.683 223.676 194.709 216.107C194.168 215.521 194.558 214.615 195.354 214.566C199.66 214.296 210.534 213.765 218 214.693C221.748 215.158 227.243 216.315 228.658 216.619C228.882 216.667 229.109 216.637 229.315 216.539C236.712 213.043 249.113 214.019 253.448 214.5C254.174 214.58 254.53 215.382 254.097 215.972C250.964 220.234 240.045 233.689 227 233.689Z" fill="#2F2A2A"/>
</svg>
