<svg width="389" height="411" viewBox="0 0 389 411" fill="none" xmlns="http://www.w3.org/2000/svg">
<path d="M126 287C136 346.5 218 357 264 304.7" stroke="black"/>
<path d="M104.727 283.611C96.147 283.191 84.0402 283.701 71.2625 286.057M386.93 391C387.977 355.784 398.5 283.611 331.236 283.611M314.007 283.611C320.238 282.775 325.969 282.818 331.236 283.611M71.2625 286.057C30 290.5 22.1665 300.896 11.8251 323.269C8.38342 340.513 1.3 378.2 0.5 391M71.2625 286.057C69.9306 310.789 58.2762 368.274 58.2762 368.274C58.2762 368.274 50.0031 386.098 53 391M331.236 283.611C327.489 301.138 325.535 337.636 331.236 352.233C334.324 359.322 340.1 377 338.5 391" stroke="black"/>
<path d="M170.402 121.49C171.877 133.504 179.917 140.601 186.13 143.907C187.69 144.737 189.102 143.122 188.266 141.566C180.499 127.111 168.713 107.728 170.402 121.49Z" fill="white"/>
<path d="M187.851 173.892C194.059 163.501 192.066 152.964 189.189 146.54C188.467 144.928 186.361 145.336 186.066 147.078C183.328 163.258 180.739 185.794 187.851 173.892Z" fill="white"/>
<path d="M203.95 171.647C204.886 159.152 197.891 150.447 192.34 146.13C191.04 145.119 189.399 146.246 189.744 147.856C193.197 163.923 202.899 185.681 203.95 171.647Z" fill="white"/>
<path d="M170.468 169.631C181.721 165.172 186.56 155.601 188.191 148.754C188.6 147.036 186.681 146.077 185.386 147.279C173.359 158.443 157.578 174.739 170.468 169.631Z" fill="white"/>
<path d="M158.204 143.203C168.063 150.225 178.727 149.083 185.36 146.73C187.025 146.14 186.787 144.008 185.075 143.575C169.166 139.548 146.91 135.161 158.204 143.203Z" fill="white"/>
<path d="M215.079 131.116C208.537 138.718 200.1 143.764 192.368 144.407C190.817 144.535 190.048 142.813 191.098 141.666C202.412 129.294 223.718 121.077 215.079 131.116Z" fill="white"/>
<path d="M183.83 114.861C179.511 126.469 183.663 136.67 187.752 142.399C188.733 143.774 190.669 143.091 190.735 141.402C191.438 123.631 187.916 103.881 183.83 114.861Z" fill="white"/>
<path d="M216.448 158.573C204.771 159.716 196.676 153.162 192.526 147.675C191.48 146.292 192.8 144.645 194.457 145.153C209.427 149.747 229.735 157.272 216.448 158.573Z" fill="white"/>
<path d="M200.5 114.5C204.554 121.023 198.762 134.042 193.34 141.105C191.867 143.025 189.421 141.878 189.671 139.471C191.319 123.603 199.1 112.246 200.5 114.5Z" fill="white"/>
<path d="M191.642 145.927C178.385 153.27 167.544 159.527 160.393 158.633C159.126 158.474 158.713 157.017 159.635 156.133C169.129 147.032 195.755 143.65 191.642 145.927Z" fill="white"/>
<path d="M162.5 129.5C167.635 129.105 180.591 136.7 187.117 143.013C188.875 144.713 187.376 146.789 185.055 146.018C169.242 140.765 156.678 129.948 162.5 129.5Z" fill="white"/>
<path d="M187.747 144.29C201.56 141.492 212.378 140.12 218.986 141.898C220.544 142.317 220.431 144.2 218.891 144.679C202.244 149.854 183.171 145.216 187.747 144.29Z" fill="white"/>
<circle cx="188.508" cy="145.339" r="6.23638" fill="#DCC33F"/>
<path d="M246.678 244.064C233.239 262.541 215.178 268.072 173.678 240.068C165.537 234.574 159.209 229.021 154.299 223.568C139.883 207.56 137.684 192.426 137.653 182.245C137.651 181.39 136.614 180.898 135.869 181.318C114.842 193.164 100.51 108.341 112.178 118.065C124.178 128.065 126.178 151.564 130.678 150.568C135.178 149.572 134.178 118.065 151.678 88.0645C173.262 51.0645 216.178 40.0645 257.678 51.0645C282.678 57.691 283.678 88.0721 287.178 114.068C287.178 122.928 286.208 131.796 284.268 138.271C284.21 138.466 284.21 138.666 284.268 138.86C287.135 148.453 285.843 169.726 284.206 176.455C284.187 176.534 284.179 176.599 284.177 176.68C283.981 184.913 262.605 222.169 246.678 244.064Z" stroke="black"/>
<path d="M284.5 139C276.5 133.5 255.278 133.5 247.5 143.5C239.722 153.5 239.333 166.341 241.5 173.012" stroke="#171717" stroke-linecap="round"/>
<path d="M226.5 231.689C218.039 231.689 201.183 221.676 194.209 214.107C193.668 213.521 194.058 212.615 194.854 212.566C199.16 212.296 210.034 211.765 217.5 212.693C221.248 213.158 226.743 214.315 228.158 214.619C228.382 214.667 228.609 214.637 228.815 214.539C236.212 211.044 248.613 212.019 252.948 212.5C253.674 212.58 254.03 213.382 253.597 213.972C250.464 218.234 239.545 231.689 226.5 231.689Z" fill="#E85656"/>
<path fill-rule="evenodd" clip-rule="evenodd" d="M94.0001 69.7178C90.3755 77.1491 87.8326 82.3626 81.018 123.932C75.2946 158.845 81.3639 192.121 86.7581 221.696C90.7888 243.795 94.4425 263.827 92.518 280.932C92.3932 282.041 92.2883 283.047 92.1898 283.993C91.0591 294.84 90.754 297.768 70.518 358.932C68.6847 368.933 67.018 392.535 75.018 406.935C78.8829 413.892 79.2375 409.495 79.921 401.02C81.0059 387.567 82.9195 363.837 101.018 358.932C124.493 352.569 135.072 310.056 137.48 289.266C137.506 289.046 137.595 288.857 137.748 288.696C146.369 279.653 161.371 254.565 154.139 224.435C159.049 229.888 165.376 235.442 173.518 240.935C215.018 268.939 233.078 263.408 246.518 244.932C243.318 252.877 236.018 280.432 250.518 298.5C266.518 315.5 313.518 330.932 334.518 280.932C342.573 261.754 339.217 260.877 333.239 259.314C325.034 257.169 311.89 253.734 316.518 199.935C324.518 106.935 310.018 55.4354 308.518 51.9316C303.659 40.5821 276.518 7.83543 240.518 1.43543C195.518 -6.56457 116.455 19.4354 96.018 65.4354C95.2939 67.0653 94.6306 68.4251 94.0001 69.7178ZM173.613 240.521C215.072 268.591 233.114 263.047 246.54 244.527C262.451 222.581 283.806 185.236 284.002 176.985C284.004 176.903 284.012 176.838 284.031 176.759C285.666 170.014 286.957 148.689 284.092 139.074C284.034 138.88 284.035 138.681 284.093 138.487C286.031 131.996 287 123.107 287 114.226C283.503 88.1685 274.5 65.5503 253.63 60C212.171 48.9742 171.562 60.4132 150 97.5C139.145 116.17 136.045 131.823 134.179 141.247C133.04 147.001 132.36 150.433 130.656 150.811C128.716 151.242 127.241 147.101 125.228 141.448C122.575 134 118.989 123.929 112.174 118.231C100.518 108.485 114.835 193.507 135.841 181.633C136.585 181.212 137.621 181.705 137.624 182.563C137.654 192.768 139.852 207.937 154.253 223.983C159.158 229.448 165.479 235.015 173.613 240.521Z" fill="#2F2A2A"/>
</svg>
