<svg width="271" height="411" viewBox="0 0 271 411" fill="none" xmlns="http://www.w3.org/2000/svg">
<path d="M101.402 121.49C102.877 133.504 110.917 140.601 117.13 143.907C118.69 144.737 120.102 143.122 119.266 141.566C111.499 127.111 99.713 107.728 101.402 121.49Z" fill="white" stroke="#E28282"/>
<path d="M118.851 173.892C125.059 163.501 123.066 152.964 120.189 146.54C119.467 144.928 117.361 145.336 117.066 147.078C114.328 163.258 111.739 185.794 118.851 173.892Z" fill="white" stroke="#E28282"/>
<path d="M134.95 171.647C135.886 159.152 128.891 150.447 123.34 146.13C122.04 145.119 120.399 146.246 120.744 147.856C124.197 163.923 133.899 185.681 134.95 171.647Z" fill="white" stroke="#E28282"/>
<path d="M101.468 169.631C112.721 165.172 117.56 155.601 119.191 148.754C119.6 147.036 117.681 146.077 116.386 147.279C104.359 158.443 88.5783 174.739 101.468 169.631Z" fill="white" stroke="#E28282"/>
<path d="M89.2041 143.203C99.0635 150.225 109.727 149.083 116.36 146.73C118.025 146.14 117.787 144.008 116.075 143.575C100.166 139.548 77.9098 135.161 89.2041 143.203Z" fill="white" stroke="#E28282"/>
<path d="M146.079 131.116C139.537 138.718 131.1 143.764 123.368 144.407C121.817 144.535 121.048 142.813 122.098 141.666C133.412 129.294 154.718 121.077 146.079 131.116Z" fill="white" stroke="#E28282"/>
<path d="M114.83 114.861C110.511 126.469 114.663 136.67 118.752 142.399C119.733 143.774 121.669 143.091 121.735 141.402C122.438 123.631 118.916 103.881 114.83 114.861Z" fill="white" stroke="#E28282"/>
<path d="M147.448 158.573C135.771 159.716 127.676 153.162 123.526 147.675C122.48 146.292 123.8 144.645 125.457 145.153C140.427 149.747 160.735 157.272 147.448 158.573Z" fill="white" stroke="#E28282"/>
<path d="M131.5 114.5C135.554 121.023 129.762 134.042 124.34 141.105C122.867 143.025 120.421 141.878 120.671 139.471C122.319 123.603 130.1 112.246 131.5 114.5Z" fill="white" stroke="#E28282"/>
<path d="M122.642 145.927C109.385 153.27 98.5442 159.527 91.3926 158.633C90.1257 158.474 89.7132 157.017 90.6348 156.133C100.129 147.032 126.755 143.65 122.642 145.927Z" fill="white" stroke="#E28282"/>
<path d="M93.5 129.5C98.6346 129.105 111.591 136.7 118.117 143.013C119.875 144.713 118.376 146.789 116.055 146.018C100.242 140.765 87.6784 129.948 93.5 129.5Z" fill="white" stroke="#E28282"/>
<path d="M118.747 144.29C132.56 141.492 143.378 140.12 149.986 141.898C151.544 142.317 151.431 144.2 149.891 144.679C133.244 149.854 114.171 145.216 118.747 144.29Z" fill="white" stroke="#E28282"/>
<circle cx="119.508" cy="145.339" r="5.73638" fill="#DCC33F" stroke="#E28282"/>
<path d="M177.678 244.064C164.239 262.541 146.178 268.072 104.678 240.068C96.5367 234.574 90.2093 229.021 85.2992 223.568C70.8833 207.56 68.6839 192.426 68.6535 182.245C68.6509 181.39 67.6138 180.898 66.8687 181.318C45.8421 193.164 31.5101 108.341 43.1783 118.065C55.1783 128.065 57.1783 151.564 61.6783 150.568C66.1783 149.572 65.1783 118.065 82.6783 88.0645C104.262 51.0645 147.178 40.0645 188.678 51.0645C213.678 57.691 214.678 88.0721 218.178 114.068C218.178 122.928 217.208 131.796 215.268 138.271C215.21 138.466 215.21 138.666 215.268 138.86C218.135 148.453 216.843 169.726 215.206 176.455C215.187 176.534 215.179 176.599 215.177 176.68C214.981 184.913 193.605 222.169 177.678 244.064Z" stroke="black"/>
<path d="M215.5 139C207.5 133.5 186.278 133.5 178.5 143.5C170.722 153.5 170.333 166.341 172.5 173.012" stroke="#171717" stroke-linecap="round"/>
<path d="M157.5 231.689C149.039 231.689 132.183 221.676 125.209 214.107C124.668 213.521 125.058 212.615 125.854 212.566C130.16 212.296 141.034 211.765 148.5 212.693C152.248 213.158 157.743 214.315 159.158 214.619C159.382 214.667 159.609 214.637 159.815 214.539C167.212 211.044 179.613 212.019 183.948 212.5C184.674 212.58 185.03 213.382 184.597 213.972C181.464 218.234 170.545 231.689 157.5 231.689Z" fill="#E85656"/>
<path fill-rule="evenodd" clip-rule="evenodd" d="M25.0001 69.7178C21.3755 77.1491 18.8326 82.3626 12.018 123.932C6.29458 158.845 12.3639 192.121 17.7581 221.696C21.7888 243.795 25.4425 263.827 23.518 280.932C23.3932 282.041 23.2883 283.047 23.1898 283.993C22.0591 294.84 21.754 297.768 1.51802 358.932C-0.315314 368.933 -1.98198 392.535 6.01802 406.935C9.88294 413.892 10.2375 409.495 10.921 401.02C12.0059 387.567 13.9195 363.837 32.018 358.932C55.493 352.569 66.0724 310.056 68.4803 289.266C68.5057 289.046 68.5954 288.857 68.7482 288.696C77.3693 279.653 92.3708 254.565 85.1389 224.435C90.049 229.888 96.3764 235.442 104.518 240.935C146.018 268.939 164.078 263.408 177.518 244.932C174.318 252.877 167.018 280.432 181.518 298.5C197.518 315.5 244.518 330.932 265.518 280.932C273.573 261.754 270.217 260.877 264.239 259.314C256.034 257.169 242.89 253.734 247.518 199.935C255.518 106.935 241.018 55.4354 239.518 51.9316C234.659 40.5821 207.518 7.83543 171.518 1.43543C126.518 -6.56457 47.455 19.4354 27.018 65.4354C26.2939 67.0653 25.6306 68.4251 25.0001 69.7178ZM104.613 240.521C146.072 268.591 164.114 263.047 177.54 244.527C193.451 222.581 214.806 185.236 215.002 176.985C215.004 176.903 215.012 176.838 215.031 176.759C216.666 170.014 217.957 148.689 215.092 139.074C215.034 138.88 215.035 138.681 215.093 138.487C217.031 131.996 218 123.107 218 114.226C214.503 88.1685 205.5 65.5503 184.63 60C143.171 48.9742 102.562 60.4132 81 97.5C70.1453 116.17 67.0455 131.823 65.1792 141.247C64.0397 147.001 63.3601 150.433 61.6557 150.811C59.7158 151.242 58.2409 147.101 56.2276 141.448C53.5755 134 49.989 123.929 43.1741 118.231C31.5176 108.485 45.8353 193.507 66.8409 181.633C67.5854 181.212 68.6214 181.705 68.624 182.563C68.6543 192.768 70.8516 207.937 85.2531 223.983C90.1584 229.448 96.4794 235.015 104.613 240.521Z" fill="#2F2A2A"/>
</svg>
