<svg id="Layer_1" data-name="Layer 1" xmlns="http://www.w3.org/2000/svg" viewBox="0 0 2984 3868"><defs><style>.cls-1{fill:#2e2e2e;}.cls-2{fill:#4cac83;}.cls-3{fill:none;stroke:#d9386e;stroke-miterlimit:10;}</style></defs><title>preet_illustration</title><path class="cls-1" d="M1979.64,1088.29c11.83,133.09-72.3,249.93-122.75,368.13-26.11,61.17-53.79,117-89.17,172.38-30.69,48-63.61,109.22-73.5,165.19-2.19,12.41-2.87,18.85-5,31.24l-.92.75a263.41,263.41,0,0,1-36.84-59.46l-3.92-8.26c-14.51,4.21-23.58,16.19-37.47,20.32-25.11,7.46-22-2.85-27.08-18.64-7.73-24.25-15-52.44-16.28-77.9-2.68-52.61,14.33-99.6,33.43-148.08a41.28,41.28,0,0,0,2.29-6.33c-16.58,11.34-29.6,28.79-48.43,39.39-17.54,9.87-37.36,17.17-56.24,22.16-28.37,7.51-93.19,16.89-114.53-10.44,20-15.64,39.14-23.16,52.37-47.81,11-20.46,16.63-45.66,9.94-68.41-17.14-58.34-94.12-81.47-98.27-143.12l-2.31-11.55c-8,21.7-7.88,46.52-.73,68.44a88.84,88.84,0,0,0,16.25,29.86c7.93,9.4,18.16,13.89,27.44,21.47-27.44-.18-58.86-15.89-81-31.13-24-16.54-43.85-38.3-61.33-61.44-50.76-67.18-44.62-161.79-11-235.65,19.27-42.39,44.68-82.7,61-126.19,13.58-36.3,26-75.19,33.65-113.2,2.08-10.36,4.23-21,5-31.56.21-2.67-.88-24.12-1.07-24-37.92,22.58-84.78,29.78-127.82,20.24a154.29,154.29,0,0,1-59.06-26.63c-14.17-10.59-37.12-28.3-36.59-48,42.34,37.51,108.09,45.49,155,12.18,96.47-68.45,63-220.15-16-287.79-20.21-17.31-39-44.55-65.64-52.48-15-4.47-32.1-.64-47.19,1.15-19.15,2.28-39.11,1.86-57.76,7.34-3.15.92-5.76.88-9,1-3.93.12-8.39,1.64-12.26,2.56-2.92.69-5.87,1.54-8.76,2.05-1.45.26-3.09-.19-4.56-.08a38.79,38.79,0,0,0-4.6,1.07c-2.34.46-4.73-.1-7.09.34a43,43,0,0,1-4.79.89c-6.3.52-12.64,3.08-18.67,4.86-5.45,1.61-11.48,1.08-17,2.5-2.23.57-4.41,1.43-6.64,2s-4.76.8-7.09,1.5c-3.41,1-6.78,2.81-10.24,3.65-2.24.55-4.57.47-6.82,1.05-5.21,1.35-10.5,2.47-15.66,4-5.35,1.59-10.85,2.84-16.17,4.48-2.39.74-4.44,2.23-6.82,3-3,.93-6.18,1.13-9.1,2.44-9.71,4.34-19.64,7.31-29.6,11-2.3.86-3.76,1.57-6.22,1.58a17.26,17.26,0,0,0-3.94.25c-3,.69-6.11,1.95-9.12,2.87-3.48,1.06-6.65,2.64-10.18,3.66a92.49,92.49,0,0,0-16,6.29,93.93,93.93,0,0,1-13.67,6c-4.17,1.32-7.81,3.7-11.59,6-7.71,4.61-16.64,9.31-25.33,11.37-6.64,1.58-12.56,6.1-19.07,8.24-4,1.31-7.57,3.74-11.31,5.63-1.65.83-2.91,2.15-4.55,3-2,1-4.46,1.38-6.54,2.19-5.42,2.12-10.4,5.1-15.84,7.13-5.2,1.93-9,5.7-13.63,8.57-5,3.07-9.57,5.57-14,9.37-3.83,3.28-8.93,5.41-12.25,9.34l-13.64,10.23c-4.31,4.14-6.1,9.53-9.16,14.56-2,3.29-4.34,6.39-5.37,10.18-2,7.39-4.86,14.38-6.55,21.87-.53,2.38-.31,4.54-.49,6.91-.15,1.95-1.05,3.57-1.23,5.54-.35,3.88-.36,7.69-1.33,11.43-2.49,9.64-3.38,19.81-6,29.55-2.37,8.86-7.16,17-8.79,26.12-.53,2.94-2,5.19-2.9,7.93-.74,2.14-.78,4.52-1.62,6.63-1.89,4.75-4.55,9.08-6.31,14-2.9,8.07-6.49,16.22-8.11,24.82-.93,4.91-1.27,9.77-2.16,14.6a92.89,92.89,0,0,0-1.35,13.4,52,52,0,0,1-3,14.21c-1.51,4.39-3.78,8.17-5.27,12.46-3.29,9.5-8.06,18.32-12.48,27.32-2.37,4.83-5.89,9-8,13.89-2.18,5.09-3.33,10.34-5.41,15.41-2,4.88-2.57,10.19-4.54,15.09a100.35,100.35,0,0,0-4,13.54c-1.33,5.41-2.82,10.93-2.8,16.53,0,6.25,0,12.51,0,18.76,0,5.85,0,10.86,1.71,16.49,1.26,4,1.93,8.14,3.13,12.18,2.57,8.67,5.51,17.2,8,25.93a103.83,103.83,0,0,1,4.2,23.31c.09,2.21,1.09,4,1.21,6.23.07,1.42-.39,3.14-.1,4.53s1,2.31,1.25,3.64c.3,1.83-.09,4-.07,5.9,0,3.78,1.16,7.11,1.15,11a39.14,39.14,0,0,1-.89,9.08l-1.39,19.3c.24,1.74-2.31,5.24-3,7-1,2.52-2.12,4.94-3,7.51a65.25,65.25,0,0,1-5.65,11.66c-4.85,8.36-10.54,16.09-14.21,25.31-3.73,9.4-10.37,17.45-14.27,26.78-1.53,3.66-2.8,7.3-4.11,11.07-1.45,4.19-3.73,7.69-5.84,11.58a154.29,154.29,0,0,0-11.05,25c-3.27,10-8.79,18.85-11.1,29.18A32.52,32.52,0,0,0,515,1233c-.12,1.9-1,3.47-1.22,5.37a67.72,67.72,0,0,0,.06,7.67c0,3-.46,6.6.1,9.6a38.79,38.79,0,0,0,4.17,11.2c2.24,4,5.28,7.22,7.81,11.06,2.71,4.12,5.28,7.94,8.91,11.36A78.28,78.28,0,0,0,549,1299.52c2.65,1.54,4.57,1.89,7.38,2.88,2.21.78,3.49,3,5.79,3.94,3.38,1.38,8.35,4.7,11.93,5.07l3.41,3.41c-5.56,42.74,5.92,84.58,19,126-3.7,41.2-47.81,76-98.2,74.3,16-10.28,16-10.28,25.76-21.77,60.27-70.85,16.39-153.06-39.79-208.12C429,1231,379.6,1179.52,351.85,1105.7c-28.24-75.15,10-146.06,11.94-221.12.85-34.17-18.57-60.72-26.78-92.83-10.56-41.26-3-69.93,24.5-102.13,29.78-34.9,66.9-61,91.45-100.55,21-33.79,19.62-69.55,35.76-104.65,35.39-76.95,80.14-159.65,150.69-208.79,31.6-22,76.68-39.79,114.4-45.55,37.53-5.72,78.88-.58,114.84-15.16,32.75-13.27,61.77-45.84,81.24-73.82,28.42-40.84,49.47-66.6,96.11-87,60.5-26.42,123.42-31.52,187.6-13.76,69.79,19.32,164.68,83.28,167,162.63,47.17-9.19,90.75-22.66,137.18-2.73a216.68,216.68,0,0,1,83.71,64.43c42.69,54.06,73.45,106.81,141.93,133.68,61.73,24.21,118.28,59.74,146.94,122.73,27.8,61.1,53.68,132.8,57.06,200.09,3.47,69.22-20.93,132-14.74,200.77C1957.69,977.79,1974.67,1032.42,1979.64,1088.29Z"/><path class="cls-2" d="M922,1995.64c-6.66-55.62-20.56-113-19-165.76l-.21-1.86c-59,12.92-131.81,22.9-186-3.28-23.63-11.4-42.26-24.37-50.58-47.22-12.74-35-.27-89.06-6.27-126.31-4.33-26.9-20.74-46.59-30.22-70.84-4.7-12-4.68-27.45-6.6-41-4.64-32.74-16.12-65.53-26.58-98.61-13.09-41.4-24.57-83.24-19-126l-3.41-3.41c-3.58-.37-8.55-3.69-11.93-5.07-2.3-.94-3.58-3.16-5.79-3.94-2.81-1-4.73-1.34-7.38-2.88a78.28,78.28,0,0,1-14.16-10.28c-3.63-3.42-6.2-7.24-8.91-11.36-2.53-3.84-5.57-7-7.81-11.06a38.79,38.79,0,0,1-4.17-11.2c-.56-3-.1-6.56-.1-9.6a67.72,67.72,0,0,1-.06-7.67c.22-1.9,1.1-3.47,1.22-5.37a32.52,32.52,0,0,1,.53-5.22c2.31-10.33,7.83-19.21,11.1-29.18a154.29,154.29,0,0,1,11.05-25c2.11-3.89,4.39-7.39,5.84-11.58,1.31-3.77,2.58-7.41,4.11-11.07,3.9-9.33,10.54-17.38,14.27-26.78,3.67-9.22,9.36-16.95,14.21-25.31a65.25,65.25,0,0,0,5.65-11.66c.87-2.57,2-5,3-7.51.67-1.71,3.22-5.21,3-7l1.39-19.3a39.14,39.14,0,0,0,.89-9.08c0-3.86-1.11-7.19-1.15-11,0-1.85.37-4.07.07-5.9-.22-1.33-1-2.34-1.25-3.64s.17-3.11.1-4.53c-.12-2.19-1.12-4-1.21-6.23a103.83,103.83,0,0,0-4.2-23.31c-2.48-8.73-5.42-17.26-8-25.93-1.2-4-1.87-8.13-3.13-12.18-1.76-5.63-1.7-10.64-1.71-16.49,0-6.25,0-12.51,0-18.76,0-5.6,1.47-11.12,2.8-16.53a100.35,100.35,0,0,1,4-13.54c2-4.9,2.55-10.21,4.54-15.09,2.08-5.07,3.23-10.32,5.41-15.41,2.09-4.88,5.61-9.06,8-13.89,4.42-9,9.19-17.82,12.48-27.32,1.49-4.29,3.76-8.07,5.27-12.46a52,52,0,0,0,3-14.21,92.89,92.89,0,0,1,1.35-13.4c.89-4.83,1.23-9.69,2.16-14.6,1.62-8.6,5.21-16.75,8.11-24.82,1.76-4.87,4.42-9.2,6.31-14,.84-2.11.88-4.49,1.62-6.63.94-2.74,2.37-5,2.9-7.93,1.63-9.08,6.42-17.26,8.79-26.12,2.61-9.74,3.5-19.91,6-29.55,1-3.74,1-7.55,1.33-11.43.18-2,1.08-3.59,1.23-5.54.18-2.37,0-4.53.49-6.91,1.69-7.49,4.54-14.48,6.55-21.87,1-3.79,3.37-6.89,5.37-10.18,3.06-5,4.85-10.42,9.16-14.56l13.64-10.23c3.32-3.93,8.42-6.06,12.25-9.34,4.44-3.8,9-6.3,14-9.37,4.64-2.87,8.43-6.64,13.63-8.57,5.44-2,10.42-5,15.84-7.13,2.08-.81,4.57-1.21,6.54-2.19,1.64-.81,2.9-2.13,4.55-3,3.74-1.89,7.32-4.32,11.31-5.63,6.51-2.14,12.43-6.66,19.07-8.24,8.69-2.06,17.62-6.76,25.33-11.37,3.78-2.26,7.42-4.64,11.59-6a93.93,93.93,0,0,0,13.67-6,92.49,92.49,0,0,1,16-6.29c3.53-1,6.7-2.6,10.18-3.66,3-.92,6.08-2.18,9.12-2.87a17.26,17.26,0,0,1,3.94-.25c2.46,0,3.92-.72,6.22-1.58,10-3.68,19.89-6.65,29.6-11,2.92-1.31,6.08-1.51,9.1-2.44,2.38-.74,4.43-2.23,6.82-3,5.32-1.64,10.82-2.89,16.17-4.48,5.16-1.54,10.45-2.66,15.66-4,2.25-.58,4.58-.5,6.82-1.05,3.46-.84,6.83-2.63,10.24-3.65,2.33-.7,4.74-.85,7.09-1.5s4.41-1.47,6.64-2c5.56-1.42,11.59-.89,17-2.5,6-1.78,12.37-4.34,18.67-4.86a43,43,0,0,0,4.79-.89c2.36-.44,4.75.12,7.09-.34a38.79,38.79,0,0,1,4.6-1.07c1.47-.11,3.11.34,4.56.08,2.89-.51,5.84-1.36,8.76-2.05,3.87-.92,8.33-2.44,12.26-2.56,3.24-.11,5.85-.07,9-1,18.65-5.48,38.61-5.06,57.76-7.34,15.09-1.79,32.15-5.62,47.19-1.15,26.64,7.93,45.43,35.17,65.64,52.48,79,67.64,112.47,219.34,16,287.79-46.93,33.31-112.68,25.33-155-12.18-.53,19.66,22.42,37.37,36.59,48a154.29,154.29,0,0,0,59.06,26.63c43,9.54,89.9,2.34,127.82-20.24.19-.12,1.28,21.33,1.07,24-.81,10.55-3,21.2-5,31.56-7.63,38-20.07,76.9-33.65,113.2-16.28,43.49-41.69,83.8-61,126.19-33.58,73.86-39.72,168.47,11,235.65,17.48,23.14,37.34,44.9,61.33,61.44,22.09,15.24,53.51,31,81,31.13-9.28-7.58-19.51-12.07-27.44-21.47a88.84,88.84,0,0,1-16.25-29.86c-7.15-21.92-7.3-46.74.73-68.44l2.31,11.55c4.15,61.65,81.13,84.78,98.27,143.12,6.69,22.75,1,48-9.94,68.41-13.23,24.65-32.34,32.17-52.37,47.81,21.34,27.33,86.16,18,114.53,10.44,18.88-5,38.7-12.29,56.24-22.16,18.83-10.6,31.85-28,48.43-39.39a41.28,41.28,0,0,1-2.29,6.33c-19.1,48.48-36.11,95.47-33.43,148.08,1.3,25.46,8.55,53.65,16.28,77.9,5,15.79,2,26.1,27.08,18.64,13.89-4.13,23-16.11,37.47-20.32l3.92,8.26a263.41,263.41,0,0,0,36.84,59.46c5.42,6.66,11.22,13.22,17.5,20,21.36,23.06,50.66,47.53,65.14,76.25,23,45.65,7.6,102.25-12.8,145.87-19,40.59-49,74.78-77.72,108.71-29.6,35-57.91,71.38-90.75,103.53-48.16,47.16-103.09,87-153.57,130.6-94.16,81.29-217.4,176.46-345.21,190.52-54.92,6-111.81,7.27-165.79-6-17.36-4.28-31.69-15.4-47.37-23.41-16.27-8.32-33.47-14.42-46.17-28.24-13.64-14.84-22.33-37.46-29.41-56.06-29.14-76.64-5.24-150,22.21-223.89,14.25-38.36,29.92-77.45,46.52-115.26,13.43-30.6,17.83-61.18,28.29-92.33,0,0,13-39.68,22.71-60.58Z"/><path class="cls-3" d="M903,1829.88c-1.56,52.81,12.34,110.14,19,165.76,2.93,24.56,4.46,48.78,2.62,72.13"/><path class="cls-3" d="M1267.2,1649.81c-34.87,42.45-134.13,90.75-190.18,118.23a739.1,739.1,0,0,1-156.93,56c-5.61,1.32-11.39,2.64-17.3,3.94-59,12.92-131.81,22.9-186-3.28-23.63-11.4-42.26-24.37-50.58-47.22-12.74-35-.27-89.06-6.27-126.31-4.33-26.9-20.74-46.59-30.22-70.84-4.7-12-4.68-27.45-6.6-41-4.64-32.74-16.12-65.53-26.58-98.61-13.09-41.4-24.57-83.24-19-126l-3.41-3.41c-3.58-.37-8.55-3.69-11.93-5.07-2.3-.94-3.58-3.16-5.79-3.94-2.81-1-4.73-1.34-7.38-2.88a78.28,78.28,0,0,1-14.16-10.28c-3.63-3.42-6.2-7.24-8.91-11.36-2.53-3.84-5.57-7-7.81-11.06a38.79,38.79,0,0,1-4.17-11.2c-.56-3-.1-6.56-.1-9.6a67.72,67.72,0,0,1-.06-7.67c.22-1.9,1.1-3.47,1.22-5.37a32.52,32.52,0,0,1,.53-5.22c2.31-10.33,7.83-19.21,11.1-29.18a154.29,154.29,0,0,1,11.05-25c2.11-3.89,4.39-7.39,5.84-11.58,1.31-3.77,2.58-7.41,4.11-11.07,3.9-9.33,10.54-17.38,14.27-26.78,3.67-9.22,9.36-16.95,14.21-25.31a65.25,65.25,0,0,0,5.65-11.66c.87-2.57,2-5,3-7.51.67-1.71,3.22-5.21,3-7l1.39-19.3a39.14,39.14,0,0,0,.89-9.08c0-3.86-1.11-7.19-1.15-11,0-1.85.37-4.07.07-5.9-.22-1.33-1-2.34-1.25-3.64s.17-3.11.1-4.53c-.12-2.19-1.12-4-1.21-6.23a103.83,103.83,0,0,0-4.2-23.31c-2.48-8.73-5.42-17.26-8-25.93-1.2-4-1.87-8.13-3.13-12.18-1.76-5.63-1.7-10.64-1.71-16.49,0-6.25,0-12.51,0-18.76,0-5.6,1.47-11.12,2.8-16.53a100.35,100.35,0,0,1,4-13.54c2-4.9,2.55-10.21,4.54-15.09,2.08-5.07,3.23-10.32,5.41-15.41,2.09-4.88,5.61-9.06,8-13.89,4.42-9,9.19-17.82,12.48-27.32,1.49-4.29,3.76-8.07,5.27-12.46a52,52,0,0,0,3-14.21,92.89,92.89,0,0,1,1.35-13.4c.89-4.83,1.23-9.69,2.16-14.6,1.62-8.6,5.21-16.75,8.11-24.82,1.76-4.87,4.42-9.2,6.31-14,.84-2.11.88-4.49,1.62-6.63.94-2.74,2.37-5,2.9-7.93,1.63-9.08,6.42-17.26,8.79-26.12,2.61-9.74,3.5-19.91,6-29.55,1-3.74,1-7.55,1.33-11.43.18-2,1.08-3.59,1.23-5.54.18-2.37,0-4.53.49-6.91,1.69-7.49,4.54-14.48,6.55-21.87,1-3.79,3.37-6.89,5.37-10.18,3.06-5,4.85-10.42,9.16-14.56l13.64-10.23c3.32-3.93,8.42-6.06,12.25-9.34,4.44-3.8,9-6.3,14-9.37,4.64-2.87,8.43-6.64,13.63-8.57,5.44-2,10.42-5,15.84-7.13,2.08-.81,4.57-1.21,6.54-2.19,1.64-.81,2.9-2.13,4.55-3,3.74-1.89,7.32-4.32,11.31-5.63,6.51-2.14,12.43-6.66,19.07-8.24,8.69-2.06,17.62-6.76,25.33-11.37,3.78-2.26,7.42-4.64,11.59-6a93.93,93.93,0,0,0,13.67-6,92.49,92.49,0,0,1,16-6.29c3.53-1,6.7-2.6,10.18-3.66,3-.92,6.08-2.18,9.12-2.87a17.26,17.26,0,0,1,3.94-.25c2.46,0,3.92-.72,6.22-1.58,10-3.68,19.89-6.65,29.6-11,2.92-1.31,6.08-1.51,9.1-2.44,2.38-.74,4.43-2.23,6.82-3,5.32-1.64,10.82-2.89,16.17-4.48,5.16-1.54,10.45-2.66,15.66-4,2.25-.58,4.58-.5,6.82-1.05,3.46-.84,6.83-2.63,10.24-3.65,2.33-.7,4.74-.85,7.09-1.5s4.41-1.47,6.64-2c5.56-1.42,11.59-.89,17-2.5,6-1.78,12.37-4.34,18.67-4.86a43,43,0,0,0,4.79-.89c2.36-.44,4.75.12,7.09-.34a38.79,38.79,0,0,1,4.6-1.07c1.47-.11,3.11.34,4.56.08,2.89-.51,5.84-1.36,8.76-2.05,3.87-.92,8.33-2.44,12.26-2.56,3.24-.11,5.85-.07,9-1,18.65-5.48,38.61-5.06,57.76-7.34,15.09-1.79,32.15-5.62,47.19-1.15,26.64,7.93,45.43,35.17,65.64,52.48,79,67.64,112.47,219.34,16,287.79-46.93,33.31-112.68,25.33-155-12.18-.53,19.66,22.42,37.37,36.59,48a154.29,154.29,0,0,0,59.06,26.63c43,9.54,89.9,2.34,127.82-20.24.19-.12,1.28,21.33,1.07,24-.81,10.55-3,21.2-5,31.56-7.63,38-20.07,76.9-33.65,113.2-16.28,43.49-41.69,83.8-61,126.19-33.58,73.86-39.72,168.47,11,235.65,17.48,23.14,37.34,44.9,61.33,61.44,22.09,15.24,53.51,31,81,31.13-9.28-7.58-19.51-12.07-27.44-21.47a88.84,88.84,0,0,1-16.25-29.86c-7.15-21.92-7.3-46.74.73-68.44l2.31,11.55c4.15,61.65,81.13,84.78,98.27,143.12,6.69,22.75,1,48-9.94,68.41-13.23,24.65-32.34,32.17-52.37,47.81,21.34,27.33,86.16,18,114.53,10.44,18.88-5,38.7-12.29,56.24-22.16,18.83-10.6,31.85-28,48.43-39.39a41.28,41.28,0,0,1-2.29,6.33c-19.1,48.48-36.11,95.47-33.43,148.08,1.3,25.46,8.55,53.65,16.28,77.9,5,15.79,2,26.1,27.08,18.64,13.89-4.13,23-16.11,37.47-20.32l3.92,8.26a263.41,263.41,0,0,0,36.84,59.46c5.42,6.66,11.22,13.22,17.5,20,21.36,23.06,50.66,47.53,65.14,76.25,23,45.65,7.6,102.25-12.8,145.87-19,40.59-49,74.78-77.72,108.71-29.6,35-57.91,71.38-90.75,103.53-48.16,47.16-103.09,87-153.57,130.6-94.16,81.29-217.4,176.46-345.21,190.52-54.92,6-111.81,7.27-165.79-6-17.36-4.28-31.69-15.4-47.37-23.41-16.27-8.32-33.47-14.42-46.17-28.24-13.64-14.84-22.33-37.46-29.41-56.06-29.14-76.64-5.24-150,22.21-223.89,14.25-38.36,29.92-77.45,46.52-115.26,13.43-30.6,17.83-61.18,28.29-92.33,0,0,13-39.68,22.71-60.58"/><path class="cls-1" d="M895.2,1980.18c-13.22,12.89-26.78,25.83-41.81,36.61-13,9.34-27.72,16-40.79,25.23a83.21,83.21,0,0,1-20.4,10.88c-8,2.93-14.57,7.29-22.06,11.17-14.62,7.57-30.24,13.67-45.23,20.54-15.53,7.13-30.62,15.29-46.36,21.71-6.37,2.6-12.33,6.3-18.56,9.26-3.47,1.64-6.58,3.94-10,5.58-3.86,1.83-8.13,2.82-12.07,4.5-6.87,2.93-13.24,6.86-20.07,9.84-7.84,3.43-15.86,5.9-23.34,10.15-6.44,3.66-13.09,6.77-19.67,10.17-7.7,4-14.77,9.07-22.31,13.33-15.34,8.67-31.67,15.14-47.46,22.87-15.62,7.65-31.08,15.68-46.63,23.45-7.44,3.72-13.58,9.63-21.43,12.58-8,3-15.85,5.55-23.52,9.52-15,7.74-29.23,16.72-44.58,23.78-14.38,6.61-25,16.83-37.7,25.9a121.47,121.47,0,0,0-17.35,14.91c-5.63,5.87-12.22,10.58-17.41,16.86-10.15,12.26-21,23.78-29.24,37.43-8.62,14.28-21.14,25.39-29.85,39.62-8.47,13.84-16.16,28-24.9,41.73s-13.11,28.45-18.81,43.63c-11.47,30.6-26.66,60.19-31.2,92.92-1.12,8.09-1.83,15.94-3.94,23.86-.93,3.49-2,7-2.79,10.48-1.13,4.88-.93,9.26-1.52,14.13-.47,4-2.4,7.71-3.45,11.57-.95,3.51-1.5,7.13-2.51,10.63-2.51,8.68-6,16.6-8.05,25.47-1.89,8.24-4.85,16.19-6.77,24.42-2,8.7-2.17,17.24-4.51,25.86-4.52,16.67-5.41,34.25-10,50.86-2.2,8-5.78,15.63-8.54,23.48-3.08,8.76-5.16,17.82-7.79,26.72-2.26,7.67-5.65,15-7.12,22.91-1.66,8.86-1.51,17.83-2.9,26.65-1.21,7.74-4.4,15-5.67,22.77-1.34,8.14.14,16.11-2.1,24.12-2.19,7.85-4.4,15.81-7,23.52-2.82,8.28-7,15.92-9.21,24.42-2,7.81-4.59,15.43-6.79,23.19-2.43,8.58-6.21,16.33-7.83,25.17-1.45,7.89-2.24,16.09-4.5,23.79C48.08,3043,46.11,3047.3,45,3052s-1.68,9.33-3,13.89c-4.29,14.61-10.26,28.88-13.88,43.65-1.88,7.65-4.62,15-6.53,22.65-2.29,9.15-4.27,17.07-8.37,25.62-3.06,6.39-5.69,13.25-6.34,20.36-.29,3.24.24,6.4.18,9.62-.07,4.3-1.58,8.14-2.22,12.36-2.51,16.45,9,31.72,13.14,47.07s6.74,31.8,12.84,46.45a440,440,0,0,0,22.57,46.95c7.4,13.21,18.27,24.45,28.53,35.47,4.95,5.32,7,13,11,19.1,4.51,6.86,9.85,13.14,15,19.51a110.22,110.22,0,0,1,12.83,19.81c3.64,7.15,8.74,13.19,12.85,20,4.3,7.18,7.31,15,11.56,22.24,4.06,6.9,9.38,12.82,11.77,20.53a181.12,181.12,0,0,0,7.47,20.2,67.09,67.09,0,0,1,3.91,12.17c.36,1.5,3,6,2.9,7.22-1,8.92,13,8.85,14,0,.35-3.27-.55-4.84-1.75-7.71s-1.15-5.53-1.82-8.49c-1.87-8.24-6.71-15.76-9.12-23.9-4.46-15.06-14.61-26.56-20.85-40.92-3.25-7.48-7.69-13.85-12.16-20.61-4.25-6.42-6.83-13.73-11.22-20.06-8.9-12.86-20.67-23.54-27.47-37.84-6.45-13.54-18.76-23-28-34.74-5.14-6.54-8.82-14.43-12.87-21.67a171.41,171.41,0,0,1-10.83-22.68c-3-7.81-6.47-15.21-8.27-23.41-1.85-8.44-4.27-16.66-6.44-25-2.08-8-4.15-15.93-7.38-23.54-3.34-7.87-8.61-15.63-7.19-24.57.56-3.51,1.85-6.76,2.15-10.34s-.44-7.24-.25-10.88c.42-8.08,4.6-14.94,7.89-22.06s4.39-14.72,6.27-22.31c2.09-8.43,4.77-16.76,7-25.16,3.9-14.84,10.49-29,14.37-43.89,2.19-8.36,4.36-16.43,6.84-24.7s3.22-16.82,4.89-25.16,5.42-15.65,7.73-23.72c2.46-8.55,5-17.09,7.56-25.63,2.1-7.14,5.74-13.69,8.27-20.67,3.07-8.48,5.65-17.4,7.94-26.13,2-7.56.86-14.65,1.67-22.27.83-7.93,4.27-15.4,5.7-23.22s1.26-16,2.5-24c1.47-9.36,5.29-18,7.92-27,2.32-8,4.22-16.12,6.92-24,2.84-8.31,6.66-16.31,9-24.79,4.54-16.61,5.43-34.19,9.94-50.86,2.13-7.84,2.44-15.21,3.89-23.11,1.7-9.24,5.29-18,7.38-27.17,3.57-15.67,9.85-30.55,13.82-46.17,1-3.86.57-7.53.93-11.44.36-4.08,1.75-8.12,2.82-12.06a153.91,153.91,0,0,0,4.48-24.63c1.73-16.4,6.83-32.36,12.6-47.74,5.62-15,12.11-29.61,17.81-44.56,5.93-15.57,10.36-30.38,19.51-44.51,8.85-13.67,16.18-28.15,24.9-41.87s20.74-24.54,29.11-38.51a123.88,123.88,0,0,1,14.85-19.42c5.29-5.87,9.75-12.52,15.3-18.14,11.49-11.63,24-21.67,37-31.56,5.51-4.21,10.3-9.32,16.26-12.89,6.9-4.13,14.43-7,21.59-10.62,15.25-7.69,29.59-18.2,45.65-24.13,7.23-2.66,14.22-4.53,20.86-8.6,7.61-4.66,14.78-8.82,22.8-12.74,15.64-7.64,30.68-16.44,46.46-23.83s31.65-14.42,46.51-23.72a223.77,223.77,0,0,1,19.69-11.36c7.88-3.89,15.28-8.83,23.4-12.16,14.05-5.77,27.52-12.54,41.61-18.1,6.78-2.68,13.22-6.79,19.78-10,3.5-1.71,6.63-4.05,10.21-5.62,3.73-1.64,7.69-2.71,11.38-4.45,6.68-3.16,12.82-7.23,19.59-10.31,8.48-3.85,16.86-7.9,25.38-11.67,14.86-6.58,30.37-13.16,44.15-21.73,6.51-4,13.6-6.22,20.6-9.21,7.62-3.26,13.59-8.47,20.46-13,13.57-8.91,28-16.15,40.57-26.53,13.28-11,25.45-23.19,37.31-35.64,4.8-5-2.65-12.51-7.64-7.64Z"/><path class="cls-1" d="M245.38,3202.69c-.15,11.68-2.65,22.5-5.2,33.84-1.18,5.26-2.37,10.12-2.23,15.56.06,2.31.32,4.64.17,6.95-.2,3.3-1.26,6.5-1.92,9.73-2.24,11-3.71,21.69-3.44,32.95s-.38,22.16-.68,33.31c-.3,10.95,2.53,21.4,2.79,32.28.26,10.62,1.85,21.2,2.55,31.8,1.57,23.56,8.63,46.77,12.93,69.92,2.37,12.78,5.07,25.46,7.64,38.19a71.68,71.68,0,0,1,1.56,17.68c-.2,5,3,9.45,2.5,14.3-.43,3.88,3.6,7.12,7.16,7.16,4.22,0,6.74-3.33,7.16-7.16.5-4.56-1.42-7.62-2.32-11.85-.51-2.37.19-4.67.2-7.06a56.23,56.23,0,0,0-1-8.77c-1.77-11.38-4.67-22.58-6.84-33.89-2.26-11.75-4.33-23.54-6.82-35.25-2.43-11.38-5.36-22.69-7.06-34.22-.79-5.41-1-10.8-1.26-16.25-.3-5.84-1.52-11.58-2-17.39-.44-4.95-.29-9.89-.9-14.83-.66-5.31-2-10.54-2.45-15.88-.87-11,.66-22.14.33-33.21-.34-11.6-.58-22.41,1.35-33.9,1-5.84,2.87-11.72,3-17.66.06-2.9-.33-5.79-.39-8.69-.06-3.42.71-6.38,1.4-9.72,2.65-12.67,5.19-24.93,5.1-37.94-.05-7.25-11.18-7.26-11.28,0Z"/><path class="cls-1" d="M2082.61,3404.31c4.13,11.35,1.47,24,2,35.86.53,12.81,1.85,25.49,1.74,38.34-.12,13-.09,26.07-.07,39.11,0,12.26,0,24.12-4.31,35.78-2.89,7.86,9.48,11.06,12.45,3.43,4.56-11.7,4.86-24.14,4.8-36.54q-.1-20.89-.07-41.78c0-13.17-1.74-26.15-2.44-39.28-.67-12.62,1.67-25.89-3-38-2.61-6.82-13.65-4-11.09,3.06Z"/><path class="cls-1" d="M1700.52,1852.86c11.75,1.92,24.09,3.69,35.17,8.19,12.39,5,21.63,12.09,32,20.27,15.92,12.62,32.68,24.12,48.72,36.58,6.74,5.23,14.05,8.75,21.2,13.29a251.38,251.38,0,0,1,24.66,17.85c6.39,5.25,12.53,10.69,19.41,15.32,7.56,5.09,15.42,9.56,21.56,16.42,6,6.64,10.76,13.93,17.76,19.58a269.86,269.86,0,0,0,23,16.3c2.66,1.71,5.53,3.07,7.93,5.16,3.5,3,5.87,7.31,8.91,10.79,5.69,6.54,13.24,11.65,20.62,16.11,15.82,9.56,31.6,19.07,47.51,28.53,16.9,10.05,34.81,18.12,52,27.55a230.77,230.77,0,0,1,23.59,14.53c8.06,5.77,16,9.36,24.74,13.85,15.56,8,26.41,22.79,42.58,30.1,8.45,3.83,15.28,9.57,22.66,15.12q12.87,9.67,25.94,19.06c33.6,24.11,65.86,49.83,98.68,75,13.88,10.62,26,24.47,41.15,33.22,15.45,8.93,29.74,19.75,43.51,31.07,28.15,23.14,54.2,48.68,82.2,72a443.55,443.55,0,0,0,42.44,31.77,158.12,158.12,0,0,0,22.12,12.27c9.07,4,16.39,7.57,23.12,15,6.05,6.67,12,10.58,19.86,14.85,8.22,4.44,15.39,11.13,23.27,16.22a191.13,191.13,0,0,1,22.56,16.39c6.41,5.59,14.24,10,20,16.24s10.46,11.57,17.66,16.23c7.65,5,11.72,13.39,19.61,18.35,16.23,10.22,25.59,28.49,36.52,43.88,4.27,6,9.89,11,13.38,17.44,4.11,7.64,9.64,13.78,14.27,21,5,7.81,8.11,16.91,11.75,25.39,3.56,8.32,5.14,17.07,9.84,24.91,9.85,16.46,18.85,33.2,24.85,51.48,6.37,19.42,11.32,39.24,18.25,58.49,6.64,18.44,14.35,36.44,22.42,54.3s11.67,37.37,18.06,55.75c3.13,9,5.33,18.32,8.68,27.26,3.83,10.21,8.18,20.23,12.07,30.42,7.36,19.25,13.85,38.82,20.36,58.37,6.36,19.07,12.11,38.27,18.16,57.42,5.79,18.32,13.79,35.6,18.95,54.17,5.38,19.35,12.89,37.92,16.06,57.74s1.31,40.75,1.26,61c0,9.6.77,19.51-.58,29-1.43,10.09-3.79,20-5.19,30.16-2.71,19.66-7.15,39.17-8.92,58.95-.83,9.24-.55,18.5-1.51,27.74-1.05,10.09-2.75,20.17-2.52,30.35.2,9.22,2.49,18.15,3.53,27.28a284.84,284.84,0,0,1,1.53,31c.07,19.76-1.09,39.5-1.09,59.27,0,12.76,19.74,12.77,19.83,0,.13-20.29,1.48-40.55,1.48-60.84a284.37,284.37,0,0,0-1.33-29.47c-1.05-10.14-3.54-20.11-3.34-30.34.19-9.16,1.69-18.21,2.71-27.29,1.15-10.27.78-20.58,1.84-30.85,2.13-20.51,6.06-41.19,9.31-61.57,1.46-9.13,3.83-18.15,4.59-27.39.88-10.83.11-21.93.12-32.8,0-20.13,1-39.8-2.2-59.65s-10.83-38.35-16.28-57.68c-5.37-19-13.81-36.72-19.6-55.54-12.13-39.41-24.65-78.89-39.72-117.3-3.78-9.63-8-19.11-11.52-28.83-3.64-10-6.16-20.27-9.8-30.24-6.76-18.52-10.19-37.82-18.38-55.84-8.29-18.27-16-36.73-22.63-55.69-6.52-18.79-11.13-38.17-17.66-57s-16.41-35.42-26-52.7c-4-7.31-5.8-16.05-9.17-23.79-3.88-8.87-7.05-18.43-12.49-26.5-4.36-6.48-9.63-12-13.14-19-3.74-7.53-9.87-12.86-14.71-19.64-5.69-8-10.86-16.28-16.9-24-5.79-7.44-10.91-15.87-18.8-21.28-3.39-2.32-7.21-3.94-10.26-6.75-3.41-3.13-5.67-7.32-9.06-10.49-2.77-2.6-6.08-4.41-9.22-6.49-4.11-2.73-6.86-6.46-10.07-10.12-5.44-6.2-12.24-10.1-18.49-15.34-7.24-6.07-14.32-12.05-22.2-17.31s-15.83-10.47-23.48-16.27-15.82-8.4-22.3-15.59c-5.92-6.58-11.71-11.53-19.77-15.37-8.68-4.14-17.29-7.73-25.49-12.82-30.74-19.09-57.54-43.67-84.35-67.78-27.05-24.32-54.61-50.54-86.38-68.67-15.13-8.63-27.23-22-41.1-32.55-17.18-13-34.11-26.38-51.14-39.61-16.35-12.7-33.17-24.78-50-36.81-15.66-11.17-31.63-25.31-49.27-33-16.22-7.1-27-22-42.65-30-8.27-4.21-16-7.36-23.53-12.87a232.87,232.87,0,0,0-27.58-16.82c-17.4-9.26-35.22-17.52-52.18-27.6-15.37-9.13-30.79-18.11-46-27.46a76.31,76.31,0,0,1-20.53-18.32c-5.16-6.49-11.35-9.91-18.08-14.45-8.15-5.5-17-10.77-23.8-17.94-6.27-6.63-11.07-14.3-18.2-20.13-6.06-5-12.85-8.81-19.34-13.15-8-5.33-14.91-12-22.65-17.65-15.37-11.2-32-20-47.22-31.32-16.6-12.35-33.7-23.93-49.88-36.85a103.9,103.9,0,0,0-29.43-16.25c-11.29-4.13-23.54-5.73-35.39-7.39-8-1.12-11.6,11-3.41,12.34Z"/><path class="cls-1" d="M1691,1827.42c2.76-16.17,4.83-32.46,8.93-48.37a349,349,0,0,1,15.91-46.56c13.38-32.2,30.53-62.84,49.1-92.31,18.79-29.83,36.84-59.91,53-91.31s30.38-63.9,44.66-96.32c51.31-116.49,132.58-231.81,120.24-365.22-6.8-73.44-33-144-26.34-218.52,3.17-35.4,10.63-70.28,13.48-105.72,2.82-35.14-.46-70-8-104.4-7.68-35.06-19.29-69.2-32.81-102.42-11.68-28.73-23.7-57-43.43-81.27-17.79-21.86-40.22-39.69-64.36-54.08-25.67-15.3-54-24.11-80.2-38.18-53.29-28.68-83.75-80.56-121-125.87a221.64,221.64,0,0,0-75.61-59.12c-31.35-14.85-63.77-16.53-97.64-11.27-17.42,2.71-34.62,6.7-51.92,10.07l9.39,7.16c-2.58-67.73-61.59-118.82-117.53-147.92-71.35-37.11-155.58-42.69-231-14.4-32.93,12.34-62.27,30-85.56,56.63-24.52,28-42.09,61.07-69.9,86.36-15.88,14.44-34.07,25.25-55.06,30.25-21.47,5.12-43.69,5.21-65.61,6.42A297.79,297.79,0,0,0,664,251.6C593.84,286,546.09,350.94,509.8,418.09c-19.12,35.38-36.8,71.08-46.27,110.31-5.35,22.15-11.23,43.46-24,62.63-11.16,16.71-25.05,31.32-39.31,45.39-27,26.59-59.09,52.77-72.91,89.18-13.68,36-1.32,72.79,12.4,106.65,7.4,18.26,13.45,36.26,12.75,56.22-.8,22.5-5,44.7-9.4,66.73-8.21,41.1-17.24,82.87-9.85,124.83,6.91,39.23,28.13,77,50.89,109.19,22.43,31.72,49.08,60.11,76.57,87.45,27.88,27.74,55.13,55.81,70.61,92.69,15.17,36.15,14.64,75.41-7.59,108.55-9.15,13.63-19,22.89-32.61,31.68-5.94,3.85-3.68,13.29,3.64,13.43,47.37.9,97.56-26.19,103-77.09.93-8.63-12.58-8.57-13.5,0-4.63,43.15-50.83,63.69-89.52,62.68l3.64,13.42c28.12-18,49.32-46.21,56-79.42,6.95-34.43-2.71-69.2-19.51-99.33-18.76-33.63-46.19-59.4-72.9-86.53-27.19-27.62-53.34-56.54-74.37-89.22-22.1-34.35-40.74-73-42-114.49-1.35-43.43,11.91-85.42,18.38-128,3-19.47,5.63-39.66,2.32-59.24-3.16-18.73-11.45-35.91-18.26-53.47s-12-36.08-11.52-55.06c.44-17.67,6.84-33.84,16.67-48.36,22.46-33.14,56.21-57.13,82.08-87.41,13-15.19,24.3-31.54,31.67-50.2,7.66-19.4,10.94-40.07,16.73-60,5.71-19.7,15.2-38.12,24.27-56.45,8.65-17.49,17.77-34.74,27.66-51.57,19.34-32.93,41.67-64.35,68.94-91.22a267.79,267.79,0,0,1,97.86-61.5c18.91-6.81,38.56-12,58.59-14.13,21.47-2.24,43.14-1.94,64.59-4.46,19.33-2.28,38.31-6.75,55.38-16.38,16.47-9.29,31.05-22.12,44-35.84,24.19-25.74,41-57.4,66.23-82.23,27.13-26.73,63.34-42.33,99.87-51.46a267.19,267.19,0,0,1,130.49.57c32.11,8.14,62.43,22.69,89.67,41.45,26.78,18.46,51.68,42.14,66.57,71.42a107.6,107.6,0,0,1,11.86,44.22c.21,5.06,4.55,8.11,9.39,7.15,33.83-6.75,68.76-16.86,103.53-11.47,32.58,5,63.24,24.13,87.16,46.16,22.32,20.56,39.22,46.23,57.78,70.05,17,21.83,35.14,42.85,57,59.93,23.71,18.47,50.4,28,77.33,40.51,25.37,11.74,49.83,26.08,70.78,44.71,22.16,19.71,38.56,43.29,50.66,70.27,14.31,31.91,27,64.63,36.77,98.23,9.82,33.88,16.85,68.94,17.12,104.31.28,35.21-6.2,69.84-11,104.59-4.83,35.09-6.49,69.37-1.78,104.57s13,69.78,19.06,104.76c5.78,33.39,8.62,66.73,4.92,100.52-3.48,31.82-12,63-22.88,93-21.91,60.69-53.6,117.19-81.16,175.37-14.26,30.09-26.71,61-40.91,91.1-14.85,31.49-31,62.38-48.7,92.36-33.87,57.31-71.36,113.12-86.73,179-3.52,15-5.27,30.4-7.69,45.64-1.12,7,9.54,10.07,10.76,3Z"/><path class="cls-1" d="M894.22,1839.82c-3.46,77,25.12,151.62,20.55,228.67-.48,8.06,11.73,7.87,12.45,0,7-77.18-21.61-151.73-21-228.67.06-7.74-11.63-7.68-12,0Z"/><path class="cls-1" d="M1259.75,1646.71c-28.33,33.71-71,56.06-109.15,76.7-43.73,23.68-88.65,46.71-135,64.8a752.41,752.41,0,0,1-163.93,43.72c-51.81,7.58-107.21,7.8-153.09-20.72-23.65-14.71-34.19-35.66-36-63-1.6-24.92,1.5-49.84,1-74.76-.47-24.59-7.44-45.32-18.86-66.92-6.17-11.67-13.25-23.44-16-36.5-2.63-12.66-2.79-25.75-5-38.51-9.36-55.33-35-106.55-43.26-162.14a203.34,203.34,0,0,1-2.11-40.8c.48-8.83,3.11-16-5.11-21.43-3.42-2.26-8.28-2.86-11.94-5.08-4.45-2.7-8.52-4.46-13.16-6.82-12.42-6.31-22.08-18.63-28.77-30.61-6-10.81-4.12-26.34-1.09-38,1.61-6.2,4.71-12,7.18-17.86,3.17-7.58,5.55-15.39,9.08-22.84,11.77-24.87,22.84-50.67,37.19-74.2a221.56,221.56,0,0,0,16.1-31.89c2.41-5.87,2.38-11.84,2.83-18.15,1.38-19-.08-36.89-2.77-55.76-1.92-13.53-6.62-26.25-10.51-39.28-4.47-15-5.72-28.35-5.73-43.95,0-14.67,4.69-27.85,8.86-41.69,2.19-7.25,4.28-14.81,7.37-21.75s7.63-13.47,11.07-20.41c5.06-10.21,9.46-20.7,13.73-31.26,5.07-12.5,5-26.42,6.88-39.64,2.23-15.67,9.37-28.48,14.72-43.13,3.88-10.63,6.42-21.69,10.51-32.31,9.82-25.53,9.27-53.68,17.34-79.59,2.92-9.37,8.22-21.6,15.59-28.29,5.58-5.06,12.69-10,18.76-14.4,8.78-6.38,17.69-12.8,26.94-18.49,11.12-6.85,24-10.5,35.42-16.8,11.92-6.58,24.94-10.37,37.38-15.67,11.63-4.95,22.5-11.54,34-16.72,25.29-11.36,51.71-16.91,77.44-27.06a349.45,349.45,0,0,1,38.93-12.24c6.7-1.77,13.69-2.63,20.31-4.52,7.44-2.11,14.66-5,22.25-6.64,5.63-1.26,11.42-1.13,17-2.5,6.31-1.55,12.21-3.87,18.67-4.86,11.18-1.72,21.75-2.46,32.8-5,26.11-6.09,53-7,79.54-10.56,14.34-1.9,29.41-4.81,43.45.26,11.9,4.29,21.85,12.75,30.87,21.35,15.86,15.13,32.86,30.17,47.41,46.56,26.55,29.92,44.29,67.92,51.69,107.14s3.64,82.11-17.91,116.65c-25,40-70.16,62.65-117.22,55.7a129.12,129.12,0,0,1-65.38-30.17c-3.68-3.18-10.29-1.26-10.13,4.2.6,20.43,16.8,35.38,31.82,47.19,17.86,14,37.44,24.76,59.4,30.91,47.28,13.23,98.88,5.93,141.19-18.63l-8.73-3.55c2.94,14.93-.65,36.07-4,52.4a683.21,683.21,0,0,1-22.75,82.64,609.15,609.15,0,0,1-33.25,80.14c-12.67,25.05-26.46,49.58-38,75.18-18.33,40.61-28.62,85.34-26.74,130,2,46.87,18.5,88.56,48,124.78,33,40.49,82.34,80.82,137.15,82.39,4.78.14,8.41-6.93,4.22-10.19-7.74-6-16.55-10.84-23.71-17.57-7.92-7.44-13.63-17.76-17.33-27.9a102,102,0,0,1-.38-68.49h-11.52c4,20.08,6.72,38,19.05,55.21,14.44,20.09,34,35.5,51.2,53.08,20.76,21.26,36.63,46.16,32.08,77.2-2.65,18.08-10.48,36.56-23.31,49.77-11.11,11.45-25.41,19.24-38,28.87-3.24,2.48-3.91,6.17-1.21,9.4,22.83,27.33,70.67,21.52,101.52,16.08a254,254,0,0,0,63-19.93,137,137,0,0,0,30.64-19.13c10.62-8.89,20-19.14,31.33-27.19l-8.81-6.77c-10.2,32.21-24.39,62.41-31.08,95.81a239.77,239.77,0,0,0-.13,95.51c3.2,15.77,8,31,12.43,46.4,1.9,6.69,2.59,15.11,8.34,19.84,7,5.74,17.71,3.27,25.45.78,13.83-4.44,23.8-15.68,37.48-20.32l-6.78-2.76c11.06,23.31,23,45.43,39.08,65.71,19.46,24.5,43.2,44.88,63.62,68.48,22.49,26,33.51,55.28,30.89,89.85-2.52,33.12-14.87,66.2-30.85,95.08-17.12,30.92-40,58-62.77,84.86-23.44,27.66-46,56.08-70.33,83-48.45,53.66-106.51,96.75-161.82,142.87-100,83.42-205.78,177-338.31,201.1-35.37,6.44-72.41,8.23-108.3,7.09-36.23-1.14-73.93-4.7-105.68-23.27-13.49-7.89-27.64-14.21-41.32-21.68-14.36-7.86-24.71-18.57-32.61-32.86-17-30.76-27.63-66.48-28.52-101.6-.94-36.79,7.61-72.92,18.8-107.73,11.36-35.33,24.92-70,38.78-104.46,13.58-33.69,29.43-66.29,38.89-101.46,6.42-23.88,13-47.47,21.26-70.76,4.39-12.32,8.9-24.65,14.33-36.56,3.46-7.57-7.77-14.2-11.25-6.57-24.76,54.27-34.17,113.45-57.59,168.09q-22.77,53.16-42.74,107.47c-13.29,36.05-25.76,72.73-31,110.94-4.93,35.81-2.67,72.32,9.49,106.54,10.08,28.39,22,59,48.37,75.87,14,8.94,29.72,14.82,44.07,23.16s28.1,15.37,44.5,19c37,8.1,75.22,9.8,113,8,35-1.67,69.84-5.49,103.59-15.08,32.62-9.26,64-22.73,94-38.51,61.53-32.39,117.48-74.58,170.72-119,27.84-23.24,55.29-46.87,83.46-69.71,29.29-23.74,58.64-47.48,86.16-73.28,28.15-26.37,53.18-55.54,77.79-85.18,23.18-27.92,47.48-55.08,69.23-84.15,37.61-50.27,72.32-121.85,55-186.14-8.51-31.5-31.5-55.38-53.91-77.87-23.21-23.3-45.58-47.19-61.94-76-5.77-10.15-10.64-20.74-15.64-31.27a6,6,0,0,0-6.78-2.76c-11.28,3.82-19.63,11.47-29.94,17-6.53,3.51-20.63,10.41-24,.77a376.19,376.19,0,0,1-17.6-71.24c-4.24-29.8-1.13-60,6.2-89.08,7-27.79,19-53.53,27.65-80.71,1.51-4.74-4.5-9.83-8.8-6.77-18.62,13.25-33,31.37-53.43,42.1a235.26,235.26,0,0,1-61.73,21.63c-28,5.73-75.74,13.51-96.78-11.67l-1.22,9.4c13-9.94,27.66-18,39.33-29.61s19.61-26.66,24.37-42.36c9.28-30.6,2.49-60.23-16.75-85.24-16.38-21.29-38.11-37.45-55.93-57.4-8.79-9.84-16.67-20.93-20.79-33.59-3.07-9.45-3.81-19.69-5.76-29.45-1.24-6.2-9.74-5.13-11.52,0a112.48,112.48,0,0,0,.39,74.85,94.83,94.83,0,0,0,14.52,26.6c8.18,10.33,19.36,16.16,29.59,24.13l4.22-10.19c-50.18-1.44-95.78-39.24-126.31-76-31-37.33-47.13-80.62-47.19-129.31,0-46.51,13.48-90.64,33.91-132,11.86-24,24.94-47.38,36.54-71.51,11.28-23.48,20.4-47.79,28.63-72.49a672.68,672.68,0,0,0,23-86.57c3.11-16.32,5.68-34.3,2.41-50.91-.76-3.82-5.62-5.36-8.73-3.55-37.5,21.77-82.64,29.11-125,19.24a152,152,0,0,1-55.89-25.63c-13.75-10.13-33.1-24.1-33.65-42.82L1101.93,755c36.61,31.62,89.38,44.57,135.47,27.16,40.2-15.19,70.07-50.91,82-91.7,11.47-39.25,7.61-82.19-5.42-120.56C1300.09,529,1276.3,496.08,1244.86,467c-17.61-16.28-32.78-36.59-55.17-46.71-24.9-11.24-54.51-2.43-80.6-.36s-51.33,9.23-77.25,12.12c-12.7,1.42-24.61,5.84-37.22,7.39-14.68,1.79-28.73,7.21-43.11,10.46-13.89,3.13-27.37,7.56-40.85,11.91-7.23,2.34-14.21,5.52-21.4,8.05-8.22,2.89-16.14,4.31-24.39,6.63a218,218,0,0,0-33.63,12.57c-6.46,3-13.29,5.29-19.61,8.6-7.43,3.89-14.21,8.72-22.1,11.76-42.67,16.43-84.61,36.08-119.45,66.41-6.88,6-12.09,16-15.91,24.32-5.8,12.58-8,26.52-10.07,40-2.2,14.11-3.69,29-8.1,42.71s-8.47,28.17-14.09,41.19c-5.41,12.53-11.11,25-13.25,38.64-2.3,14.52-2.06,29.78-7.95,43.4-5.73,13.25-10.92,26.63-18.34,39.08s-10.89,26.39-15.3,40.23c-9,28.29-9.34,55.89-.86,84.33,4.43,14.84,8.64,28.64,10.86,44,1.82,12.6,4.24,26.07,2.77,38.78-.66,5.64-.48,11.43-1.33,17-1.56,10.3-7.54,21.11-12.94,30.1-15.23,25.34-27.23,52.09-40.16,78.57-11.32,23.17-22.4,48.75-21.22,75,.51,11.27,6.81,19.55,13.06,28.36,8,11.21,16.6,19.39,29,25.52,3.9,1.93,7.64,4,11.5,6,2.9,1.52,8.61,2.89,10.27,4.85,1.07,1.25.18,1.72-.79,5s-.52,7.79-.59,11.11a203.79,203.79,0,0,0,1.14,25.79c2.93,27.87,10.59,54.87,19,81.51,9,28.43,18.93,56.69,24.71,86,2.65,13.44,3.27,27,5.4,40.53,2.18,13.8,8.3,26,14.77,38.2,6.28,11.89,13,23.69,16.72,36.7,4.1,14.21,4.16,29.16,3.86,43.84-.51,25.18-3.28,50.67.6,75.71,7.95,51.3,60.31,75.84,107.07,82.58,54,7.79,109.55-3.08,162-15.74,58.67-14.17,114.25-36,168.31-62.6,45.19-22.25,90.74-45,132.26-73.71,16.2-11.2,32.22-23.39,44.94-38.54,4.44-5.3-3.16-13-7.64-7.64Z"/></svg>